<svg width="232" height="20" viewBox="0 0 232 20" fill="none" xmlns="http://www.w3.org/2000/svg">
<path d="M10 20C8.61667 20 7.31667 19.7375 6.1 19.2125C4.88333 18.6875 3.825 17.975 2.925 17.075C2.025 16.175 1.3125 15.1167 0.7875 13.9C0.2625 12.6833 0 11.3833 0 10C0 8.61667 0.2625 7.31667 0.7875 6.1C1.3125 4.88333 2.025 3.825 2.925 2.925C3.825 2.025 4.88333 1.3125 6.1 0.7875C7.31667 0.2625 8.61667 0 10 0C11.0833 0 12.1083 0.158333 13.075 0.475C14.0417 0.791667 14.9333 1.23333 15.75 1.8L14.3 3.275C13.6667 2.875 12.9917 2.5625 12.275 2.3375C11.5583 2.1125 10.8 2 10 2C7.78333 2 5.89583 2.77917 4.3375 4.3375C2.77917 5.89583 2 7.78333 2 10C2 12.2167 2.77917 14.1042 4.3375 15.6625C5.89583 17.2208 7.78333 18 10 18C12.2167 18 14.1042 17.2208 15.6625 15.6625C17.2208 14.1042 18 12.2167 18 10C18 9.7 17.9833 9.4 17.95 9.1C17.9167 8.8 17.8667 8.50833 17.8 8.225L19.425 6.6C19.6083 7.13333 19.75 7.68333 19.85 8.25C19.95 8.81667 20 9.4 20 10C20 11.3833 19.7375 12.6833 19.2125 13.9C18.6875 15.1167 17.975 16.175 17.075 17.075C16.175 17.975 15.1167 18.6875 13.9 19.2125C12.6833 19.7375 11.3833 20 10 20ZM8.6 14.6L4.35 10.35L5.75 8.95L8.6 11.8L18.6 1.775L20 3.175L8.6 14.6Z" fill="white"/>
<path d="M40.592 5.088C42.958 5.088 44.372 6.306 44.372 8.238V11.85C44.372 13.782 42.958 15 40.606 15H36.868V5.088H40.592ZM42.65 11.752V8.336C42.65 7.3 41.992 6.684 40.718 6.684H38.59V13.404H40.704C41.992 13.404 42.65 12.788 42.65 11.752ZM54.9901 6.684H50.4681V9.358H54.3881V10.954H50.4681V13.404H54.9901V15H48.7461V5.088H54.9901V6.684ZM62.8987 15.196C60.4347 15.196 59.0067 13.95 59.0067 12.032V8.056C59.0067 6.138 60.4207 4.892 62.8847 4.892C65.3627 4.892 66.7767 6.138 66.7767 8.056V8.826H64.9707V8.154C64.9707 7.118 64.2987 6.488 62.8987 6.488C61.4567 6.488 60.7287 7.118 60.7287 8.154V11.934C60.7287 12.97 61.4427 13.6 62.8847 13.6C64.2987 13.6 64.9707 12.97 64.9707 11.934V11.248H66.7767V12.032C66.7767 13.95 65.3627 15.196 62.8987 15.196ZM71.1352 15V5.088H72.8572V15H71.1352ZM80.9222 15.196C78.5002 15.196 77.0862 13.894 77.0862 12.046V11.682H78.8082V12.144C78.8082 13.04 79.7322 13.614 80.9642 13.614C82.0002 13.614 82.9102 13.152 82.9102 12.228C82.9102 10.044 77.3102 11.29 77.3102 7.748C77.3102 6.194 78.3602 4.892 80.8382 4.892C83.2742 4.892 84.4502 6.11 84.4502 7.832V8.28H82.7282V7.79C82.7282 7.02 81.9582 6.488 80.8102 6.488C79.7602 6.488 79.0322 6.95 79.0322 7.706C79.0322 9.526 84.6322 8.546 84.6462 12.144C84.6462 13.866 83.3582 15.196 80.9222 15.196ZM88.8758 15V5.088H90.5978V15H88.8758ZM98.8868 15.196C96.3668 15.196 94.9528 13.964 94.9528 12.032V8.07C94.9528 6.138 96.3528 4.892 98.8728 4.892C101.393 4.892 102.793 6.138 102.793 8.07V12.032C102.793 13.964 101.393 15.196 98.8868 15.196ZM98.8728 13.6C100.427 13.6 101.071 12.97 101.071 11.934V8.168C101.071 7.118 100.427 6.488 98.8868 6.488C97.3468 6.488 96.6748 7.118 96.6748 8.168V11.934C96.6748 12.97 97.3328 13.6 98.8728 13.6ZM112.665 5.088H114.289V15H112.665L108.773 8.294V15H107.163V5.088H108.773L112.665 11.836V5.088ZM128.682 15.196C126.218 15.196 124.79 13.95 124.79 12.032V8.056C124.79 6.138 126.204 4.892 128.668 4.892C131.146 4.892 132.56 6.138 132.56 8.056V8.826H130.754V8.154C130.754 7.118 130.082 6.488 128.682 6.488C127.24 6.488 126.512 7.118 126.512 8.154V11.934C126.512 12.97 127.226 13.6 128.668 13.6C130.082 13.6 130.754 12.97 130.754 11.934V11.248H132.56V12.032C132.56 13.95 131.146 15.196 128.682 15.196ZM142.687 5.088H144.409V15H142.687V10.954H138.641V15H136.919V5.088H138.641V9.358H142.687V5.088ZM155.191 6.684H150.669V9.358H154.589V10.954H150.669V13.404H155.191V15H148.947V5.088H155.191V6.684ZM163.1 15.196C160.636 15.196 159.208 13.95 159.208 12.032V8.056C159.208 6.138 160.622 4.892 163.086 4.892C165.564 4.892 166.978 6.138 166.978 8.056V8.826H165.172V8.154C165.172 7.118 164.5 6.488 163.1 6.488C161.658 6.488 160.93 7.118 160.93 8.154V11.934C160.93 12.97 161.644 13.6 163.086 13.6C164.5 13.6 165.172 12.97 165.172 11.934V11.248H166.978V12.032C166.978 13.95 165.564 15.196 163.1 15.196ZM179.092 15H176.936L173.058 10.268V15H171.336V5.088H173.058V9.54L176.782 5.088H178.966L175.032 9.918L179.092 15ZM187.068 5.088C189.014 5.088 190.232 6.166 190.232 7.86V8.854C190.232 10.548 189.028 11.626 187.082 11.626H184.772V15H183.05V5.088H187.068ZM188.51 8.896V7.818C188.51 7.09 188.048 6.684 187.194 6.684H184.772V10.03H187.18C188.034 10.03 188.51 9.624 188.51 8.896ZM198.202 15.196C195.682 15.196 194.268 13.964 194.268 12.032V8.07C194.268 6.138 195.668 4.892 198.188 4.892C200.708 4.892 202.108 6.138 202.108 8.07V12.032C202.108 13.964 200.708 15.196 198.202 15.196ZM198.188 13.6C199.742 13.6 200.386 12.97 200.386 11.934V8.168C200.386 7.118 199.742 6.488 198.202 6.488C196.662 6.488 195.99 7.118 195.99 8.168V11.934C195.99 12.97 196.648 13.6 198.188 13.6ZM206.479 15V5.088H208.201V15H206.479ZM218.24 5.088H219.864V15H218.24L214.348 8.294V15H212.738V5.088H214.348L218.24 11.836V5.088ZM231.089 5.088V6.684H228.233V15H226.525V6.684H223.655V5.088H231.089Z" fill="white"/>
</svg>
