<svg width="1920" height="1080" viewBox="0 0 1920 1080" fill="none" xmlns="http://www.w3.org/2000/svg">
<g clip-path="url(#clip0_1622_15848)">
<path opacity="0.7" fill-rule="evenodd" clip-rule="evenodd" d="M442.621 1783.9L442.732 1784.08L442.769 1784.01L489.069 1864.25H581.93L582.041 1864.06L628.378 1783.82L628.267 1783.64L628.113 1783.37L673.825 1704.22H674.381L674.493 1704.03L720.347 1624.61L766.313 1704.22H859.174L859.285 1704.03L905.585 1623.8L905.474 1623.61L905.339 1623.38L949.642 1546.64C950.013 1546.79 950.422 1546.9 950.867 1546.9C952.613 1546.9 954.023 1545.49 954.023 1543.74C954.023 1542.88 953.681 1542.1 953.125 1541.54L998 1463.77L997.889 1463.58L951.551 1383.39H859.248L813.022 1303.37H720.162L720.05 1303.56L675.293 1381.04C674.822 1380.73 674.265 1380.56 673.66 1380.56C672.027 1380.56 670.686 1381.8 670.521 1383.39H581.967L537.274 1305.95C537.854 1305.38 538.213 1304.58 538.213 1303.7C538.213 1302.84 537.866 1302.05 537.304 1301.48L582.19 1223.69L626.621 1146.71C626.89 1146.79 627.175 1146.83 627.472 1146.83C629.09 1146.83 630.42 1145.62 630.606 1144.05H720.57L720.682 1143.86L765.268 1066.66C765.535 1066.74 765.818 1066.78 766.112 1066.78C767.857 1066.78 769.268 1065.37 769.268 1063.62C769.268 1062.62 768.748 1061.73 768.006 1061.17L812.545 984.023H813.022L813.133 983.837L859.434 903.601L859.322 903.415L812.985 823.179H720.125L720.013 823.365L675.244 900.865C674.792 900.596 674.266 900.441 673.698 900.441C672.089 900.441 670.765 901.639 670.567 903.193H581.93L537.264 825.803C537.85 825.231 538.213 824.431 538.213 823.546C538.213 822.662 537.851 821.864 537.267 821.292L582.152 743.537L582.041 743.351L535.704 663.115H442.843L442.732 663.301L397.981 740.79C397.534 740.528 397.014 740.377 396.453 740.377C394.708 740.377 393.297 741.787 393.297 743.533C393.297 744.572 393.817 745.426 394.56 746.02L349.782 823.583L349.893 823.769L349.959 823.883L304.426 902.747L258.682 823.513L304.908 743.5L304.797 743.314L258.46 663.078H166.045L120.079 583.435L166.305 503.422L166.193 503.236L119.856 423H26.9959L26.8845 423.186L-17.7369 500.824C-18.2303 500.492 -18.8253 500.299 -19.4685 500.299C-21.1765 500.336 -22.5873 501.747 -22.5873 503.492C-22.5873 504.494 -22.0676 505.386 -21.325 505.942L-66.1028 583.505L-65.9915 583.691L-65.8062 584.012L-111.199 662.632L-157.165 583.027H-250.026L-250.137 583.213L-294.981 660.863C-295.467 660.546 -296.048 660.363 -296.675 660.363C-298.383 660.4 -299.794 661.811 -299.794 663.556C-299.794 664.596 -299.274 665.45 -298.532 666.007L-343.31 743.57L-343.198 743.755L-343.042 744.025L-388.926 823.476L-388.815 823.662L-342.514 903.898H-250.1L-203.911 983.912H-111.942L-156.412 1060.98C-156.903 1060.63 -157.497 1060.43 -158.146 1060.43C-159.754 1060.43 -161.079 1061.63 -161.277 1063.18H-250.1L-250.211 1063.37L-296.332 1143.23H-297.01L-297.121 1143.41L-341.75 1220.75C-342.122 1220.57 -342.53 1220.49 -342.976 1220.49L-342.901 1220.35C-344.646 1220.35 -346.057 1221.76 -346.057 1223.5C-346.057 1224.73 -345.363 1225.79 -344.346 1226.31L-389 1303.63L-388.889 1303.82L-342.552 1384.05H-249.691L-249.58 1383.87L-204.979 1306.6C-204.761 1306.65 -204.533 1306.67 -204.298 1306.67C-202.731 1306.67 -201.434 1305.53 -201.185 1304.04H-111.533L-65.3446 1384.09H27.0701L72.7244 1463.19L72.5007 1463.58L72.6121 1463.77L72.8145 1464.12L26.8102 1543.75L26.9216 1543.93L73.2217 1624.17H166.082L166.193 1623.98L212.531 1543.75L212.419 1543.56L212.244 1543.26L256.55 1466.51C256.922 1466.7 257.33 1466.77 257.776 1466.77C259.521 1466.77 260.932 1465.36 260.932 1463.62C260.932 1462.78 260.61 1462.03 260.084 1461.46L304.5 1384.54L349.961 1463.28L349.745 1463.65L349.856 1463.84L350.029 1464.14L304.017 1543.78L304.129 1543.97L350.429 1624.21H442.843L488.546 1703.39L488.348 1703.73L488.46 1703.92L488.614 1704.19L442.621 1783.9ZM489.045 1704.93L443.512 1783.82L489.478 1863.47H581.447L627.223 1784.15H538.102C537.879 1785.71 536.616 1786.9 535.02 1786.9C533.275 1786.9 531.864 1785.49 531.864 1783.75C531.864 1782.71 532.384 1781.85 533.126 1781.3L489.045 1704.93ZM488.979 1702.64L443.475 1623.8L458.809 1597.25L487.997 1546.72C488.25 1546.79 488.517 1546.82 488.794 1546.82C489.239 1546.82 489.648 1546.71 490.019 1546.56L534.537 1623.68L488.979 1702.64ZM487.269 1546.41L473.475 1570.29L442.806 1623.39H350.874L304.908 1543.75L350.441 1464.85L396.156 1544.08H485.712C485.857 1545.07 486.44 1545.93 487.269 1546.41ZM350.97 1464.1L396.676 1543.3H485.786C485.902 1542.33 486.449 1541.5 487.232 1541.01L442.843 1464.1H350.97ZM350.376 1462.56L304.871 1383.72L320.206 1357.17L350.444 1304.82L394.523 1381.15C393.78 1381.71 393.26 1382.56 393.26 1383.6C393.26 1384.64 393.78 1385.53 394.523 1386.09L350.376 1462.56ZM350.002 1304.06L334.872 1330.25L304.463 1382.94L259.958 1305.85C260.444 1305.37 260.771 1304.72 260.857 1304H349.968L350.002 1304.06ZM260.059 1301.39C260.518 1301.87 260.831 1302.49 260.932 1303.18H349.903L304.463 1224.47L260.059 1301.39ZM259.275 1306.36L303.72 1383.35H212.234L212.207 1383.3L256.55 1306.49C256.922 1306.67 257.33 1306.75 257.776 1306.75C258.321 1306.75 258.832 1306.61 259.275 1306.36ZM211.784 1382.57L255.956 1306.04C255.346 1305.58 254.886 1304.9 254.742 1304.11H166.49L196.899 1356.8L211.784 1382.57ZM212.313 1384.09H303.794H303.832L259.45 1460.94C258.965 1460.64 258.391 1460.46 257.776 1460.46C257.33 1460.46 256.922 1460.57 256.55 1460.72L212.313 1384.09ZM254.709 1463.36C254.799 1462.48 255.287 1461.71 255.956 1461.2L211.848 1384.82L166.528 1463.36H254.709ZM254.735 1464.14C254.872 1464.94 255.336 1465.64 255.956 1466.1L211.823 1542.53L166.565 1464.14H254.735ZM211.455 1544L165.637 1623.39H73.6674L27.7014 1543.75L73.2375 1464.85L117.279 1541.11C116.536 1541.7 116.016 1542.55 116.016 1543.59C116.016 1545.34 117.427 1546.75 119.172 1546.75C120.769 1546.75 122.068 1545.56 122.254 1544H211.455ZM73.7042 1464.1L117.984 1540.81V1540.77C118.355 1540.62 118.764 1540.51 119.209 1540.51C120.806 1540.51 122.068 1541.74 122.291 1543.26H211.322L165.637 1464.1H73.7042ZM73.1656 1462.43L27.7384 1383.72L43.0728 1357.17L72.2522 1306.59C72.4744 1306.65 72.7065 1306.67 72.9462 1306.67C73.3918 1306.67 73.8002 1306.56 74.1715 1306.41L118.69 1383.53L73.1656 1462.43ZM71.5067 1306.32L57.7018 1330.22L27.033 1383.31H-64.9362L-110.902 1303.67L-95.5677 1277.12L-66.3705 1226.57C-66.1425 1226.63 -65.9038 1226.66 -65.6572 1226.66C-65.2117 1226.66 -64.8032 1226.55 -64.432 1226.4L-19.6913 1303.92H69.8645C70.0142 1304.97 70.6328 1305.85 71.5067 1306.32ZM-62.4872 1224.03C-62.5955 1224.9 -63.0753 1225.61 -63.7264 1226.1L-19.1714 1303.26V1303.18H69.9388C70.0794 1302.2 70.6341 1301.36 71.4256 1300.88L27.0701 1224.03H-62.4872ZM-67.1495 1226.27L-80.9761 1250.2L-111.645 1303.3H-201.15C-201.219 1302.38 -201.716 1301.58 -202.404 1301.07L-157.937 1224.06H-157.351L-157.259 1223.91H-68.739C-68.5924 1224.91 -67.9956 1225.79 -67.1495 1226.27ZM-156.787 1223.09H-68.7018C-68.5872 1222.13 -68.0482 1221.31 -67.2769 1220.82L-111.385 1144.42L-156.787 1223.09ZM-158.761 1224.06L-202.998 1300.69C-203.37 1300.51 -203.778 1300.43 -204.224 1300.43C-204.558 1300.43 -204.88 1300.49 -205.182 1300.58L-218.948 1276.75L-249.357 1224.06H-249.32H-158.761ZM-205.765 1306.3L-250.211 1383.31H-342.18L-388.146 1303.67L-343.648 1226.57C-343.409 1226.63 -343.159 1226.66 -342.901 1226.66C-342.456 1226.66 -342.047 1226.55 -341.676 1226.4L-296.935 1303.92H-207.38C-207.232 1304.96 -206.624 1305.83 -205.765 1306.3ZM-339.773 1224.03C-339.891 1224.88 -340.366 1225.58 -341.008 1226.06L-296.453 1303.22L-296.416 1303.18H-207.305C-207.189 1302.21 -206.637 1301.38 -205.849 1300.89L-234.914 1250.57L-250.248 1224.03H-339.773ZM-339.772 1223.21C-339.887 1222.35 -340.364 1221.64 -341.008 1221.13L-296.453 1143.93H-296.354L-250.582 1223.21H-339.772ZM-295.493 1143.23L-249.766 1064V1064.04H-161.269C-161.143 1064.87 -160.672 1065.57 -160.04 1066.07L-204.595 1143.23H-295.493ZM-155.873 1061.45L-111.162 983.986H-111.088H-19.1187L26.8474 1063.63L11.5129 1090.18L-19.1319 1143.23H-19.3199L-65.5088 1063.18H-155.064C-155.16 1062.52 -155.448 1061.92 -155.873 1061.45ZM-20.0029 1143.27L-65.8429 1063.85H-65.88H-154.99C-155.078 1064.59 -155.416 1065.24 -155.917 1065.73L-126.459 1116.72L-111.125 1143.27H-20.0029ZM-20.201 1144.05H-110.716L-66.5822 1220.5C-66.2798 1220.4 -65.9565 1220.35 -65.6201 1220.35C-65.1746 1220.35 -64.7661 1220.42 -64.3948 1220.61L-35.2113 1170.04L-20.201 1144.05ZM-19.2166 1144.05L-49.803 1197.07L-63.7264 1221.16C-63.0405 1221.69 -62.5846 1222.41 -62.4847 1223.28H26.5502L-19.1929 1144.05H-19.2166ZM-18.2491 1143.23L-3.15314 1117.09L27.2557 1064.41L71.3984 1140.86C70.5425 1141.32 69.9379 1142.2 69.7902 1143.23H-18.2491ZM72.1437 1140.57C72.3763 1140.51 72.62 1140.48 72.8719 1140.48C74.4928 1140.48 75.8254 1141.7 76.0069 1143.27H165.191L119.448 1064.04H27.9612L72.1437 1140.57ZM76.0035 1144.01C75.8926 1144.86 75.414 1145.6 74.7656 1146.09L119.321 1223.28H119.413L150.079 1170.19L165.191 1144.01H76.0035ZM118.595 1223.28L74.2458 1146.46C73.8745 1146.61 73.4661 1146.72 73.0205 1146.72C71.424 1146.72 70.1616 1145.49 69.9388 1143.97H-18.297L27.4785 1223.28H118.595ZM118.482 1224.06H27.8498L72.0328 1300.59C72.3414 1300.49 72.673 1300.43 73.0205 1300.43C73.4661 1300.43 73.8745 1300.51 74.2458 1300.69L103.429 1250.12L118.482 1224.06ZM119.38 1224.08L88.7632 1277.08L74.877 1301.18C75.57 1301.67 76.0283 1302.43 76.1217 1303.3H165.08H165.117L119.38 1224.08ZM120.317 1223.28L135.413 1197.14L165.822 1144.46L211.308 1223.25L211.29 1223.28H120.317ZM211.396 1223.99H120.248L165.822 1302.93L211.396 1223.99ZM211.84 1224.75L166.49 1303.33H254.705C254.785 1302.44 255.277 1301.65 255.956 1301.14L226.736 1250.53L211.84 1224.75ZM212.351 1224.06L242.738 1276.67L256.625 1300.69C256.996 1300.55 257.404 1300.43 257.85 1300.43C258.433 1300.43 258.971 1300.6 259.431 1300.88L303.757 1224.06H212.351ZM211.76 1222.46L166.49 1144.05H257.018L211.76 1222.46ZM257.969 1144.05L212.239 1223.28H303.757L273.348 1170.6L258.014 1144.05H257.969ZM257.044 1143.27H166.528L181.639 1117.09L210.757 1066.68C210.998 1066.75 211.251 1066.78 211.513 1066.78C211.958 1066.78 212.367 1066.67 212.738 1066.52L257.044 1143.27ZM214.658 1064C214.513 1064.79 214.054 1065.47 213.443 1065.96L257.998 1143.12H258.139L303.832 1064H214.658ZM210.012 1066.38L196.268 1090.18L165.859 1142.86H165.822L120.304 1064.03H208.431C208.577 1065.03 209.17 1065.9 210.012 1066.38ZM118.427 1063.26H27.887L72.1238 986.659C72.386 986.729 72.6616 986.766 72.9462 986.766C73.3546 986.766 73.7631 986.655 74.1344 986.506L118.427 1063.26ZM76.0568 983.986C75.9151 984.79 75.4536 985.458 74.8398 985.949L119.395 1063.1H208.505C208.645 1062.13 209.193 1061.29 209.976 1060.81L165.637 983.986H76.0568ZM71.3645 986.344C70.4227 985.801 69.7902 984.791 69.7902 983.647C69.7902 982.462 70.4409 981.431 71.4051 980.88L26.9959 903.935H-64.9733L-110.754 983.169H-18.7845L27.1815 1062.77L27.2187 1062.81L71.3645 986.344ZM72.1146 980.58C72.3795 980.504 72.6583 980.46 72.9462 980.454C73.3918 980.454 73.8002 980.529 74.1715 980.714L118.69 903.597L74.1715 826.479C73.8002 826.628 73.3918 826.739 72.9462 826.739C72.643 826.739 72.3518 826.695 72.0775 826.613L42.9986 877.016L27.6642 903.564L72.1146 980.58ZM71.358 826.29L57.6275 850.061L26.9802 903.118H-64.9182L-19.2456 823.992H69.8645C70.0055 824.955 70.563 825.8 71.358 826.29ZM-65.9177 904.005L-111.608 983.169H-203.577H-203.651L-249.617 903.527L-234.283 876.979L-205.176 826.588C-204.876 826.686 -204.556 826.739 -204.224 826.739C-203.815 826.739 -203.407 826.628 -203.035 826.479L-158.295 904.005H-65.9177ZM-201.187 823.885C-201.329 824.689 -201.791 825.357 -202.404 825.848L-157.849 903.003H-65.9443L-96.3104 850.432L-111.645 823.885H-201.187ZM-205.814 826.294L-219.542 850.061L-250.211 903.155H-342.18L-388.146 823.513L-342.656 744.695L-296.861 823.992H-207.305C-207.188 824.958 -206.621 825.805 -205.814 826.294ZM-342.073 743.908L-296.453 822.952H-207.342C-207.224 821.959 -206.669 821.116 -205.87 820.635L-250.174 743.908H-342.073ZM-342.271 743.054L-297.901 666.192C-297.529 666.378 -297.121 666.452 -296.675 666.452C-296.06 666.452 -295.494 666.27 -295.021 665.959L-250.508 743.054H-342.271ZM-294.463 661.288L-249.766 583.844H-157.796L-157.759 583.807L-111.793 663.449L-127.128 689.996L-157.796 743.091H-157.831L-204.038 663.111H-293.594C-293.678 662.4 -293.994 661.767 -294.463 661.288ZM-158.702 743.091L-204.521 663.705H-293.631C-293.718 664.422 -294.045 665.074 -294.533 665.562L-249.766 743.091H-158.702ZM-158.857 743.871H-249.357L-205.21 820.34C-204.923 820.252 -204.617 820.204 -204.298 820.204C-203.852 820.204 -203.444 820.279 -203.073 820.464L-173.889 769.894L-158.857 743.871ZM-157.916 743.871L-188.518 796.85L-202.404 820.91C-201.725 821.419 -201.233 822.207 -201.153 823.105H-112.127L-157.871 743.871H-157.916ZM-157.007 743.124L-141.868 716.915L-111.459 664.229L-67.2395 740.823C-68.0336 741.313 -68.5841 742.159 -68.7018 743.124H-157.007ZM-67.2268 746.08C-68.0446 745.6 -68.6201 744.754 -68.739 743.755H-157.033L-111.459 822.696L-67.2268 746.08ZM-66.5212 740.501L-110.791 663.82H-20.088L-64.432 740.636C-64.8032 740.451 -65.2117 740.377 -65.6572 740.377C-65.9589 740.377 -66.2485 740.42 -66.5212 740.501ZM-19.2791 663.864L-63.7637 740.896C-63.0942 741.398 -62.606 742.172 -62.5162 743.054H26.4389L-3.96985 690.368L-19.2791 663.864ZM-20.1687 663.078H-110.716H-110.754L-65.4491 584.631L-20.1687 663.078ZM-64.8507 583.807L-19.2086 662.888H-19.0833L26.5502 583.807H-64.8507ZM-65.0485 583.027L-20.6566 506.128C-20.2853 506.314 -19.8769 506.388 -19.4313 506.388C-18.8208 506.388 -18.2592 506.214 -17.7879 505.912L26.736 583.027H-65.0485ZM-17.2561 501.224L27.4415 423.78H119.411L165.377 503.422L119.411 583.064H119.38L73.169 503.046H-16.3867C-16.4713 502.336 -16.7867 501.703 -17.2561 501.224ZM118.563 583.064L72.7234 503.64H-16.3867C-16.4753 504.385 -16.8091 505.044 -17.3076 505.531L27.4415 583.064H118.563ZM119.411 583.827V583.844H119.401L74.8398 661.031C75.5824 661.588 76.1022 662.479 76.1022 663.482C76.1022 664.521 75.5824 665.375 74.8398 665.97L119.375 743.089L150.042 689.996L165.377 663.449L119.416 583.817L119.411 583.827ZM118.445 743.871H27.887H27.8498L72.0267 820.392C72.3264 820.294 72.6475 820.242 72.9833 820.242C73.4289 820.242 73.8373 820.316 74.2086 820.501L103.392 769.931L118.445 743.871ZM119.35 743.871L88.7261 796.887L74.8398 820.947C75.5354 821.477 75.9946 822.214 76.0856 823.105H165.117L119.373 743.871H119.35ZM120.259 743.124L135.376 716.952L166.045 663.857H258.014L303.98 743.5L258.014 823.142H257.999L213.48 746.02C214.223 745.426 214.743 744.572 214.743 743.533C214.743 741.787 213.332 740.377 211.587 740.377C209.99 740.377 208.728 741.565 208.505 743.124H120.259ZM257.183 823.142L212.812 746.28C212.441 746.429 212.032 746.54 211.587 746.54C209.99 746.54 208.728 745.315 208.505 743.792H120.211L166.008 823.142H257.183ZM258.049 823.945L303.98 903.527L288.646 930.074L257.986 983.153L213.48 906.084C214.223 905.527 214.743 904.674 214.743 903.634C214.743 902.594 214.223 901.74 213.48 901.146L258.049 823.945ZM257.027 984.023H166.528L210.675 1060.49C210.962 1060.4 211.268 1060.36 211.587 1060.36C212.032 1060.36 212.441 1060.43 212.812 1060.62L241.996 1010.05L257.027 984.023ZM257.889 984.023L227.33 1036.93L213.443 1061.02C214.131 1061.54 214.628 1062.34 214.697 1063.26H303.757L258.014 984.023H257.889ZM258.819 983.239L273.98 956.993L304.388 904.306L349.958 983.239H258.819ZM349.963 983.833H258.814L304.388 1062.77L349.963 983.833ZM350.452 982.465L305.094 903.898H393.31C393.391 904.792 393.883 905.577 394.56 906.084L350.452 982.465ZM397.902 906.187C397.464 906.43 396.96 906.567 396.416 906.567C395.971 906.567 395.562 906.456 395.191 906.307L350.842 983.132H442.324L411.915 930.445L397.902 906.187ZM393.337 903.155H305.094H305.057L350.398 824.644L394.56 901.146C393.938 901.644 393.472 902.35 393.337 903.155ZM350.954 823.885L395.191 900.515C395.562 900.366 395.971 900.255 396.416 900.255C397.011 900.255 397.559 900.425 398.025 900.717L442.361 823.885H350.954ZM350.821 823.142L395.191 746.28C395.562 746.466 395.971 746.54 396.416 746.54C396.963 746.54 397.471 746.401 397.911 746.155L442.361 823.142H350.821ZM398.57 741.237L443.252 663.82H535.221L581.187 743.463L536.567 820.773C536.118 820.529 535.604 820.39 535.057 820.39C534.611 820.39 534.203 820.501 533.832 820.65L489.091 743.124H399.535C399.428 742.392 399.08 741.728 398.57 741.237ZM531.912 823.105H443.252L398.559 745.669C399.055 745.184 399.393 744.53 399.498 743.792H488.608L533.148 820.921C532.475 821.432 531.988 822.188 531.912 823.105ZM536.628 826.285L581.187 903.49L565.853 930.037L535.212 983.084L489.468 903.827L489.663 903.49L489.552 903.304L489.507 903.225L533.832 826.442C534.203 826.628 534.611 826.702 535.057 826.702C535.629 826.702 536.165 826.55 536.628 826.285ZM488.993 902.336L533.163 825.848C532.55 825.357 532.088 824.689 531.946 823.885H443.697L488.993 902.336ZM488.47 903.003L443.029 824.33L398.638 901.221C399.091 901.7 399.398 902.322 399.498 903.003H488.47ZM488.603 903.82H399.498C399.392 904.563 399.049 905.223 398.546 905.709L427.955 956.622L443.029 982.761L488.603 903.82ZM489.059 904.536L534.421 983.132H443.66L489.059 904.536ZM536.048 983.202L551.187 956.993L581.855 903.898H670.557C670.649 904.777 671.137 905.547 671.804 906.047L627.249 983.202H536.048ZM675.815 901.301L720.496 823.885H812.465L858.431 903.527L812.495 983.117L766.335 903.188H676.779C676.672 902.456 676.324 901.792 675.815 901.301ZM811.649 983.169L765.852 903.82H676.742C676.653 904.572 676.312 905.238 675.8 905.726L705.199 956.622L720.533 983.169H811.649ZM811.532 984.023L767.338 1060.58C766.966 1060.39 766.558 1060.32 766.112 1060.32C765.789 1060.32 765.477 1060.37 765.185 1060.46L721.053 984.023H811.532ZM764.459 1066.29L720.05 1143.23H630.596C630.472 1142.39 630 1141.69 629.365 1141.19L673.92 1064.03H763.031C763.168 1064.97 763.699 1065.79 764.459 1066.29ZM625.776 1146.31L581.595 1222.84L536.12 1144.08H624.39C624.524 1145 625.038 1145.81 625.776 1146.31ZM535.277 1144.08H534.834L534.815 1144.05H443.735L489.478 1223.28H580.964H581.001L535.277 1144.08ZM534.344 1143.23L490.093 1066.56C489.722 1066.71 489.314 1066.82 488.868 1066.82C488.523 1066.82 488.193 1066.76 487.886 1066.65L458.772 1117.06L443.66 1143.23H534.344ZM491.915 1063.96C491.786 1064.78 491.317 1065.5 490.687 1066L535.243 1143.15L535.28 1143.12H624.39C624.505 1142.15 625.045 1141.33 625.818 1140.84L596.744 1090.51L581.41 1063.96H491.915ZM491.927 1063.15H580.927L535.201 983.942L504.574 1036.97L490.687 1061.06C491.338 1061.55 491.818 1062.29 491.927 1063.15ZM487.898 1060.47C488.202 1060.37 488.529 1060.32 488.868 1060.32C489.314 1060.32 489.722 1060.39 490.093 1060.58L519.277 1010.01L534.352 983.912H443.697L487.898 1060.47ZM487.156 1066.29L473.401 1090.1L442.992 1142.79L397.546 1064.07H485.786C485.92 1064.98 486.427 1065.79 487.156 1066.29ZM397.53 1063.07H485.786C485.898 1062.13 486.417 1061.32 487.161 1060.83L442.992 984.32L397.53 1063.07ZM396.662 1063.04L442.324 983.912H350.954L381.342 1036.52L396.662 1063.04ZM395.802 1063.18L365.302 1010.38L350.407 984.593L305.02 1063.18H305.057H395.802ZM396.675 1064.07L442.398 1143.27H353.355C353.237 1142.43 352.762 1141.7 352.121 1141.22L396.675 1064.07ZM349.309 1140.5C349.588 1140.41 349.884 1140.37 350.19 1140.37C350.636 1140.37 351.044 1140.44 351.416 1140.63L395.631 1064.04H305.168L335.577 1116.72L349.309 1140.5ZM348.576 1140.82L319.537 1090.55L304.463 1064.41L259.022 1143.12H347.109C347.225 1142.14 347.782 1141.3 348.576 1140.82ZM348.692 1146.26C347.869 1145.78 347.29 1144.92 347.146 1143.93H258.889L289.388 1196.74L304.463 1222.88L348.692 1146.26ZM353.371 1143.94H442.324L427.212 1170.11L397.91 1220.9C397.479 1220.67 396.985 1220.53 396.453 1220.53C396.008 1220.53 395.599 1220.64 395.228 1220.79L352.121 1146.13C352.798 1145.62 353.289 1144.83 353.371 1143.94ZM393.358 1223.21C393.467 1222.36 393.946 1221.61 394.597 1221.09L351.49 1146.42H351.453C351.081 1146.57 350.673 1146.68 350.227 1146.68C349.909 1146.68 349.604 1146.63 349.318 1146.54L305.057 1223.21H393.358ZM393.37 1224.03H305.057L350.398 1302.56L380.711 1250.09L394.597 1226.03C393.968 1225.52 393.499 1224.83 393.37 1224.03ZM397.868 1226.32C397.444 1226.54 396.964 1226.66 396.453 1226.66C396.008 1226.66 395.599 1226.58 395.228 1226.4L366.045 1276.97L350.858 1303.26H442.286L397.868 1226.32ZM398.609 1221.43L412.657 1197.11L443.066 1144.42L488.601 1223.28H399.535C399.431 1222.57 399.098 1221.92 398.609 1221.43ZM489.522 1224.03H581.001L536.611 1300.95C536.152 1300.69 535.622 1300.55 535.057 1300.55C534.611 1300.55 534.203 1300.66 533.832 1300.81L489.522 1224.03ZM531.912 1303.3C531.992 1302.4 532.488 1301.61 533.2 1301.07L488.645 1223.91H399.535C399.445 1224.67 399.094 1225.33 398.574 1225.82L443.289 1303.3H531.912ZM536.667 1306.42L581.261 1383.68L565.927 1410.23L535.259 1463.32L489.516 1384.07L489.738 1383.68L489.626 1383.5L489.533 1383.34L533.832 1306.6C534.203 1306.78 534.611 1306.86 535.057 1306.86C535.646 1306.86 536.196 1306.7 536.667 1306.42ZM489.049 1382.5L533.2 1306C532.59 1305.55 532.105 1304.86 531.952 1304.08H443.772L489.049 1382.5ZM489.085 1384.81L534.4 1463.32H443.735L489.085 1384.81ZM534.373 1464.1H443.66L487.885 1540.71C488.193 1540.6 488.524 1540.55 488.868 1540.55C489.314 1540.55 489.722 1540.62 490.093 1540.81L519.277 1490.24L534.373 1464.1ZM535.201 1464.13L504.574 1517.16L490.687 1541.25C491.331 1541.77 491.808 1542.48 491.923 1543.34H580.89H580.927L535.201 1464.13ZM536.048 1463.36L551.187 1437.15L581.855 1384.05H670.524C670.63 1384.95 671.143 1385.71 671.804 1386.2L627.249 1463.36H536.048ZM675.852 1381.49L720.533 1304.08H812.502H812.577L858.543 1383.72L843.208 1410.27L812.563 1463.32H812.487L766.298 1383.31H676.742C676.64 1382.61 676.321 1381.98 675.852 1381.49ZM811.686 1463.36L765.89 1384.01H765.852H676.742C676.638 1384.74 676.304 1385.39 675.814 1385.88L705.236 1436.81L720.57 1463.36H811.686ZM813.393 1463.32L828.468 1437.22L859.137 1384.13H951.106L997.072 1463.77L952.466 1541.02C951.997 1540.74 951.451 1540.59 950.867 1540.59C950.422 1540.59 950.013 1540.7 949.642 1540.85L904.901 1463.32H813.393ZM947.801 1543.41C947.89 1542.53 948.379 1541.75 949.048 1541.22L904.493 1464.06H813.302L859.099 1543.41H947.801ZM947.827 1544.19C947.964 1544.99 948.428 1545.69 949.048 1546.16L904.897 1622.61L859.619 1544.19H947.827ZM904.467 1624.13L858.691 1703.44H766.722L766.685 1703.4L720.719 1623.8L736.053 1597.25L765.228 1546.74C765.496 1546.82 765.78 1546.86 766.075 1546.86C766.521 1546.86 766.929 1546.75 767.3 1546.6L812.041 1624.13H904.467ZM769.198 1544.15C769.072 1544.99 768.601 1545.68 767.969 1546.16L812.524 1623.31H904.376L858.691 1544.15H769.198ZM769.209 1543.34H858.171L812.464 1464.17L781.855 1517.16L767.969 1541.22C768.622 1541.74 769.103 1542.46 769.209 1543.34ZM765.142 1540.67C765.446 1540.57 765.771 1540.51 766.112 1540.51C766.558 1540.51 766.966 1540.59 767.338 1540.77L796.521 1490.2L811.596 1464.1H720.942L765.142 1540.67ZM764.464 1546.4L750.682 1570.26L720.273 1622.94L674.742 1544.11H762.993C763.133 1545.07 763.681 1545.91 764.464 1546.4ZM674.811 1543.26H763.031C763.167 1542.3 763.695 1541.49 764.451 1541L720.273 1464.48V1464.51L674.811 1543.26ZM673.859 1544.15H673.862L719.605 1623.39H630.571C630.472 1622.53 629.988 1621.8 629.328 1621.27L673.859 1544.15ZM626.565 1620.7C626.851 1620.61 627.156 1620.56 627.472 1620.56C627.917 1620.56 628.326 1620.67 628.697 1620.82L672.955 1544.15H582.375L612.784 1596.84L626.565 1620.7ZM630.555 1624.17H719.642H719.679L673.916 1703.41L629.328 1626.17C629.958 1625.7 630.427 1624.98 630.555 1624.17ZM673.067 1703.44L628.697 1626.58C628.326 1626.73 627.917 1626.84 627.472 1626.84C627.183 1626.84 626.905 1626.8 626.643 1626.73L582.375 1703.44H673.067ZM672.912 1704.22L627.671 1782.61L582.412 1704.22H672.912ZM627.132 1783.34L581.447 1704.18H489.573L533.832 1780.85C534.203 1780.7 534.611 1780.59 535.057 1780.59C536.653 1780.59 537.916 1781.78 538.139 1783.34H627.132ZM625.888 1626.4C625.091 1625.92 624.531 1625.08 624.39 1624.09H536.117L581.67 1702.99L625.888 1626.4ZM536.186 1623.31H624.39C624.506 1622.36 625.055 1621.53 625.838 1621.03L596.744 1570.67L581.67 1544.53L536.186 1623.31ZM535.28 1623.31L535.243 1623.35L490.687 1546.19C491.329 1545.71 491.805 1545.01 491.922 1544.15H581.001L535.28 1623.31ZM535.226 1624.18L489.504 1703.4H580.964L535.226 1624.18ZM673.003 1543.34L642.546 1490.61L627.629 1464.79L582.301 1543.34H673.003ZM628.177 1464.07L658.586 1516.71L673.895 1543.22L719.568 1464.07H628.177ZM628.108 1463.29H719.568L689.159 1410.6L675.163 1386.37C674.721 1386.62 674.21 1386.76 673.66 1386.76C673.215 1386.76 672.806 1386.69 672.435 1386.5L628.108 1463.29ZM627.147 1464.06H536.101L581.633 1542.93L627.147 1464.06ZM488.598 1384.05H399.535C399.431 1384.78 399.098 1385.43 398.61 1385.91L443.066 1462.92L488.598 1384.05ZM398.649 1381.39C399.116 1381.87 399.434 1382.5 399.535 1383.2H488.528L443.066 1304.45L398.649 1381.39ZM398.029 1380.89L442.398 1304.08H351.034L395.228 1380.63V1380.71C395.599 1380.56 396.008 1380.45 396.453 1380.45C397.034 1380.45 397.571 1380.61 398.029 1380.89ZM397.952 1386.41C397.511 1386.66 397.002 1386.8 396.453 1386.8C396.008 1386.8 395.599 1386.72 395.228 1386.54L350.901 1463.32H442.361L397.952 1386.41ZM626.514 1140.52C626.815 1140.42 627.137 1140.37 627.472 1140.37C627.917 1140.37 628.326 1140.44 628.697 1140.63L672.934 1064H582.338L612.747 1116.69L626.514 1140.52ZM674.85 1063.07H763.031C763.143 1062.12 763.666 1061.31 764.417 1060.82L720.273 984.357L674.85 1063.07ZM673.024 1063.18H582.301L627.64 984.612L642.546 1010.42L673.024 1063.18ZM628.198 983.912L658.586 1036.52L673.906 1063.04L719.568 983.912H628.198ZM628.086 983.132H719.568L689.159 930.445L675.152 906.197C674.715 906.433 674.208 906.567 673.66 906.567C673.215 906.567 672.806 906.456 672.435 906.307L628.086 983.132ZM627.168 983.87H536.08L581.633 1062.77L627.168 983.87ZM257.14 983.169L212.812 906.381V906.344C212.441 906.493 212.032 906.604 211.587 906.604C211.294 906.604 211.013 906.563 210.747 906.486L166.453 983.169H257.14ZM210.665 900.431C210.955 900.341 211.264 900.292 211.587 900.292C212.032 900.292 212.441 900.367 212.812 900.552L257.049 823.922H166.49L210.665 900.431ZM210.008 906.16L165.785 982.761L120.232 903.857H208.505C208.647 904.824 209.208 905.671 210.008 906.16ZM120.323 903.04H208.505C208.642 902.079 209.175 901.258 209.937 900.771L165.785 824.293L120.323 903.04ZM119.453 903.04L165.154 823.922H76.0631C75.9292 824.741 75.4629 825.418 74.8398 825.885L119.395 903.04H119.453ZM119.359 903.918L74.8398 981.011C75.5092 981.513 75.9977 982.287 76.0874 983.169H165.117L119.359 903.918ZM118.558 743.091L74.2086 666.267L74.1715 666.229C73.8002 666.378 73.3917 666.489 72.9833 666.489C72.6978 666.489 72.4219 666.451 72.16 666.38L27.8498 743.091H118.558ZM72.022 660.285C72.3111 660.191 72.621 660.14 72.9462 660.14C73.3918 660.14 73.8002 660.215 74.1715 660.4L118.366 583.844H27.887L72.022 660.285ZM71.2731 660.652L27.1443 584.215L-18.2748 662.888H69.9016C70.0367 661.964 70.5409 661.15 71.2731 660.652ZM71.3862 666.05C70.5831 665.567 70.0191 664.729 69.9016 663.742H-18.4297L12.0699 716.544L27.1443 742.683L71.3862 666.05ZM-62.5468 743.871C-62.6885 744.675 -63.15 745.344 -63.7637 745.835L-34.543 796.442L-19.2086 822.989H-19.1418L26.5502 743.871H26.5132H-62.5468ZM-20.0402 823.142L-50.5828 770.266L-64.4691 746.243C-64.8405 746.392 -65.2488 746.503 -65.6572 746.503C-65.9381 746.503 -66.21 746.466 -66.468 746.397L-110.754 823.142H-20.0402ZM-20.2165 823.885H-110.716L-80.3077 876.571L-65.4602 902.275L-20.2165 823.885ZM-18.2262 822.989H69.9016C70.0396 822.023 70.5767 821.199 71.345 820.713L27.2187 744.279L-18.2262 822.989ZM-156.548 1066.2C-156.997 1066.45 -157.517 1066.59 -158.072 1066.59C-158.517 1066.59 -158.926 1066.52 -159.297 1066.33L-203.71 1143.27H-112.053L-142.462 1090.58L-156.548 1066.2ZM-204.447 1144L-204.484 1143.93H-295.562L-249.988 1222.88L-204.447 1144ZM-204.015 1144.75L-249.357 1223.28H-158.65L-189.149 1170.48L-204.015 1144.75ZM-203.47 1144.05L-173.146 1196.55L-157.812 1223.09H-157.724L-112.09 1144.05H-203.47ZM76.1042 1304.08C75.9758 1304.89 75.5064 1305.61 74.877 1306.08L119.432 1383.27V1383.23H119.506L165.228 1304.08H76.1042ZM119.426 1384.06L73.6805 1463.32L73.683 1463.32H165.191L119.426 1384.06ZM120.269 1384.05L165.822 1462.95L211.375 1384.05H120.269ZM120.36 1383.23H211.284L180.897 1330.62L165.822 1304.49L120.36 1383.23Z" fill="#0097CD"/>
<path opacity="0.7" fill-rule="evenodd" clip-rule="evenodd" d="M2020.62 723.898L2020.73 724.084L2020.77 724.01L2067.07 804.246H2159.93L2160.04 804.06L2206.38 723.824L2206.27 723.638L2206.11 723.372L2251.82 644.219H2252.38L2252.49 644.033L2298.35 564.614L2344.31 644.219H2437.17L2437.29 644.033L2483.59 563.797L2483.47 563.611L2483.34 563.377L2527.64 486.638C2528.01 486.787 2528.42 486.898 2528.87 486.898C2530.61 486.898 2532.02 485.487 2532.02 483.742C2532.02 482.883 2531.68 482.104 2531.13 481.536L2576 403.77L2575.89 403.584L2529.55 323.385H2437.25L2391.02 243.372H2298.16L2298.05 243.557L2253.29 321.036C2252.82 320.735 2252.27 320.559 2251.66 320.559C2250.03 320.559 2248.69 321.796 2248.52 323.385H2159.97L2115.27 245.949C2115.85 245.377 2116.21 244.582 2116.21 243.702C2116.21 242.837 2115.87 242.054 2115.3 241.484L2160.19 163.692L2204.62 86.7095C2204.89 86.7881 2205.17 86.8305 2205.47 86.8305C2207.09 86.8305 2208.42 85.6176 2208.61 84.05H2298.57L2298.68 83.8644L2343.27 6.66064C2343.53 6.73816 2343.82 6.77979 2344.11 6.77979C2345.86 6.77979 2347.27 5.3689 2347.27 3.62384C2347.27 2.62134 2346.75 1.73022 2346.01 1.17328L2390.55 -75.977H2391.02L2391.13 -76.1627L2437.43 -156.399L2437.32 -156.585L2390.98 -236.821H2298.12L2298.01 -236.635L2253.24 -159.135C2252.79 -159.404 2252.27 -159.559 2251.7 -159.559C2250.09 -159.559 2248.77 -158.361 2248.57 -156.807H2159.93L2115.26 -234.197C2115.85 -234.769 2116.21 -235.569 2116.21 -236.454C2116.21 -237.338 2115.85 -238.136 2115.27 -238.708L2160.15 -316.463L2160.04 -316.649L2113.7 -396.885H2020.84L2020.73 -396.699L1975.98 -319.21C1975.53 -319.472 1975.01 -319.623 1974.45 -319.623C1972.71 -319.623 1971.3 -318.213 1971.3 -316.467C1971.3 -315.428 1971.82 -314.574 1972.56 -313.98L1927.78 -236.417L1927.89 -236.231L1927.96 -236.117L1882.43 -157.253L1836.68 -236.487L1882.91 -316.5L1882.8 -316.686L1836.46 -396.922H1744.04L1698.08 -476.565L1744.3 -556.578L1744.19 -556.764L1697.86 -637H1605L1604.88 -636.814L1560.26 -559.176C1559.77 -559.508 1559.17 -559.701 1558.53 -559.701C1556.82 -559.664 1555.41 -558.253 1555.41 -556.508C1555.41 -555.506 1555.93 -554.614 1556.68 -554.058L1511.9 -476.495L1512.01 -476.309L1512.19 -475.988L1466.8 -397.368L1420.83 -476.973H1327.97L1327.86 -476.787L1283.02 -399.137C1282.53 -399.454 1281.95 -399.637 1281.32 -399.637C1279.62 -399.6 1278.21 -398.189 1278.21 -396.444C1278.21 -395.404 1278.73 -394.55 1279.47 -393.993L1234.69 -316.43L1234.8 -316.245L1234.96 -315.975L1189.07 -236.524L1189.19 -236.338L1235.49 -156.102H1327.9L1374.09 -76.0884H1466.06L1421.59 0.976013C1421.1 0.633301 1420.5 0.430725 1419.85 0.430725C1418.25 0.430725 1416.92 1.62885 1416.72 3.1825H1327.9L1327.79 3.36816L1281.67 83.2289H1280.99L1280.88 83.4146L1236.25 160.755C1235.88 160.569 1235.47 160.495 1235.02 160.495L1235.1 160.346C1233.35 160.346 1231.94 161.757 1231.94 163.502C1231.94 164.727 1232.64 165.786 1233.65 166.31L1189 243.632L1189.11 243.817L1235.45 324.053H1328.31L1328.42 323.868L1373.02 246.597C1373.24 246.646 1373.47 246.672 1373.7 246.672C1375.27 246.672 1376.57 245.535 1376.81 244.04H1466.47L1512.66 324.091H1605.07L1650.72 403.193L1650.5 403.58L1650.61 403.766L1650.81 404.116L1604.81 483.746L1604.92 483.932L1651.22 564.168H1744.08L1744.19 563.983L1790.53 483.746L1790.42 483.561L1790.24 483.257L1834.55 406.513C1834.92 406.699 1835.33 406.773 1835.78 406.773C1837.52 406.773 1838.93 405.362 1838.93 403.617C1838.93 402.784 1838.61 402.027 1838.08 401.464L1882.5 324.536L1927.96 403.281L1927.74 403.655L1927.86 403.84L1928.03 404.14L1882.02 483.783L1882.13 483.969L1928.43 564.205H2020.84L2066.55 643.39L2066.35 643.732L2066.46 643.918L2066.61 644.186L2020.62 723.898ZM2067.04 644.932L2021.51 723.824L2067.48 803.466H2159.45L2205.22 724.154H2116.1C2115.88 725.714 2114.62 726.902 2113.02 726.902C2111.27 726.902 2109.86 725.491 2109.86 723.746C2109.86 722.706 2110.38 721.852 2111.13 721.295L2067.04 644.932ZM2066.98 642.639L2021.47 563.797L2036.81 537.25L2066 486.718C2066.25 486.787 2066.52 486.824 2066.79 486.824C2067.24 486.824 2067.65 486.713 2068.02 486.564L2112.54 563.682L2066.98 642.639ZM2065.27 486.413L2051.48 510.294L2020.81 563.389H1928.87L1882.91 483.746L1928.44 404.854L1974.16 484.076H2063.71C2063.86 485.065 2064.44 485.929 2065.27 486.413ZM1928.97 404.104L1974.68 483.297H2063.79C2063.9 482.326 2064.45 481.499 2065.23 481.013L2020.84 404.104H1928.97ZM1928.38 402.562L1882.87 323.719L1898.21 297.172L1928.44 244.823L1972.52 321.153C1971.78 321.71 1971.26 322.564 1971.26 323.604C1971.26 324.643 1971.78 325.534 1972.52 326.091L1928.38 402.562ZM1928 244.059L1912.87 270.253L1882.46 322.94L1837.96 245.851C1838.44 245.369 1838.77 244.724 1838.86 243.999H1927.97L1928 244.059ZM1838.06 241.386C1838.52 241.867 1838.83 242.494 1838.93 243.182H1927.9L1882.46 164.472L1838.06 241.386ZM1837.28 246.363L1881.72 323.348H1790.23L1790.21 323.302L1834.55 246.486C1834.92 246.672 1835.33 246.746 1835.78 246.746C1836.32 246.746 1836.83 246.608 1837.28 246.363ZM1789.78 322.569L1833.96 246.041C1833.35 245.583 1832.89 244.9 1832.74 244.114H1744.49L1774.9 296.801L1789.78 322.569ZM1790.31 324.091H1881.79H1881.83L1837.45 400.94C1836.96 400.637 1836.39 400.461 1835.78 400.461C1835.33 400.461 1834.92 400.573 1834.55 400.721L1790.31 324.091ZM1832.71 403.362C1832.8 402.48 1833.29 401.706 1833.96 401.204L1789.85 324.823L1744.53 403.362H1832.71ZM1832.74 404.141C1832.87 404.942 1833.34 405.64 1833.96 406.105L1789.82 482.529L1744.56 404.141H1832.74ZM1789.45 484.002L1743.64 563.389H1651.67L1605.7 483.746L1651.24 404.849L1695.28 481.106C1694.54 481.7 1694.02 482.554 1694.02 483.594C1694.02 485.339 1695.43 486.75 1697.17 486.75C1698.77 486.75 1700.07 485.562 1700.25 484.002H1789.45ZM1651.7 404.104L1695.98 480.809V480.772C1696.36 480.623 1696.76 480.512 1697.21 480.512C1698.81 480.512 1700.07 481.737 1700.29 483.26H1789.32L1743.64 404.104H1651.7ZM1651.17 402.428L1605.74 323.719L1621.07 297.172L1650.25 246.594C1650.47 246.645 1650.71 246.672 1650.95 246.672C1651.39 246.672 1651.8 246.561 1652.17 246.412L1696.69 323.529L1651.17 402.428ZM1649.51 246.317L1635.7 270.216L1605.03 323.311H1513.06L1467.1 243.669L1482.43 217.121L1511.63 166.574C1511.86 166.629 1512.1 166.658 1512.34 166.658C1512.79 166.658 1513.2 166.547 1513.57 166.398L1558.31 243.924H1647.86C1648.01 244.972 1648.63 245.852 1649.51 246.317ZM1515.51 164.026C1515.4 164.896 1514.92 165.613 1514.27 166.101L1558.83 243.256V243.182H1647.94C1648.08 242.198 1648.63 241.361 1649.43 240.878L1605.07 164.026H1515.51ZM1510.85 166.266L1497.02 190.203L1466.36 243.297H1376.85C1376.78 242.385 1376.28 241.581 1375.6 241.065L1420.06 164.064H1420.65L1420.74 163.911H1509.26C1509.41 164.913 1510 165.786 1510.85 166.266ZM1421.21 163.094H1509.3C1509.41 162.131 1509.95 161.31 1510.72 160.823L1466.62 84.4213L1421.21 163.094ZM1419.24 164.064L1375 240.694C1374.63 240.508 1374.22 240.434 1373.78 240.434C1373.44 240.434 1373.12 240.487 1372.82 240.583L1359.05 216.75L1328.64 164.064H1328.68H1419.24ZM1372.24 246.302L1327.79 323.311H1235.82L1189.85 243.669L1234.35 166.57C1234.59 166.628 1234.84 166.658 1235.1 166.658C1235.54 166.658 1235.95 166.547 1236.32 166.398L1281.06 243.924H1370.62C1370.77 244.961 1371.38 245.833 1372.24 246.302ZM1238.23 164.026C1238.11 164.88 1237.63 165.583 1236.99 166.064L1281.55 243.219L1281.58 243.182H1370.69C1370.81 242.206 1371.36 241.376 1372.15 240.891L1343.09 190.574L1327.75 164.026H1238.23ZM1238.23 163.21C1238.11 162.352 1237.64 161.641 1236.99 161.126L1281.55 83.9344H1281.65L1327.42 163.21H1238.23ZM1282.51 83.2289L1328.23 3.99939V4.0365H1416.73C1416.86 4.87378 1417.33 5.56842 1417.96 6.0744L1373.41 83.2289H1282.51ZM1422.13 1.45282L1466.84 -76.0142H1466.91H1558.88L1604.85 3.62805L1589.51 30.1755L1558.87 83.2289H1558.68L1512.49 3.17828H1422.94C1422.84 2.52356 1422.55 1.92377 1422.13 1.45282ZM1558 83.2703L1512.16 3.84662H1512.12H1423.01C1422.92 4.58508 1422.58 5.2403 1422.08 5.72546L1451.54 56.7229L1466.88 83.2703H1558ZM1557.8 84.05H1467.28L1511.42 160.497C1511.72 160.399 1512.04 160.346 1512.38 160.346C1512.83 160.346 1513.23 160.421 1513.61 160.606L1542.79 110.036L1557.8 84.05ZM1558.78 84.05L1528.2 137.066L1514.27 161.163C1514.96 161.686 1515.42 162.41 1515.52 163.284H1604.55L1558.81 84.05H1558.78ZM1559.75 83.2289L1574.85 57.0942L1605.26 4.40778L1649.4 80.8551C1648.54 81.3246 1647.94 82.1952 1647.79 83.2289H1559.75ZM1650.14 80.567C1650.38 80.511 1650.62 80.4814 1650.87 80.4814C1652.49 80.4814 1653.83 81.6987 1654.01 83.2703H1743.19L1697.45 4.0365H1605.96L1650.14 80.567ZM1654 84.0129C1653.89 84.8605 1653.41 85.6016 1652.77 86.0879L1697.32 163.28H1697.41L1728.08 110.189L1743.19 84.0129H1654ZM1696.59 163.284L1652.25 86.4592C1651.87 86.6077 1651.47 86.7191 1651.02 86.7191C1649.42 86.7191 1648.16 85.4938 1647.94 83.9716H1559.7L1605.48 163.284H1696.59ZM1696.48 164.064H1605.85L1650.03 240.595C1650.34 240.49 1650.67 240.434 1651.02 240.434C1651.47 240.434 1651.87 240.508 1652.25 240.694L1681.43 190.124L1696.48 164.064ZM1697.38 164.075L1666.76 217.08L1652.88 241.177C1653.57 241.672 1654.03 242.431 1654.12 243.297H1743.08H1743.12L1697.38 164.075ZM1698.32 163.28L1713.41 137.145L1743.82 84.4584L1789.31 163.247L1789.29 163.28H1698.32ZM1789.4 163.985H1698.25L1743.82 242.926L1789.4 163.985ZM1789.84 164.745L1744.49 243.335H1832.71C1832.78 242.437 1833.28 241.649 1833.96 241.14L1804.74 190.532L1789.84 164.745ZM1790.35 164.064L1820.74 216.671L1834.62 240.694C1835 240.546 1835.4 240.434 1835.85 240.434C1836.43 240.434 1836.97 240.598 1837.43 240.879L1881.76 164.064H1790.35ZM1789.76 162.464L1744.49 84.05H1835.02L1789.76 162.464ZM1835.97 84.05L1790.24 163.284H1881.76L1851.35 110.597L1836.01 84.05H1835.97ZM1835.04 83.2703H1744.53L1759.64 57.0942L1788.76 6.68488C1789 6.74677 1789.25 6.77979 1789.51 6.77979C1789.96 6.77979 1790.37 6.66846 1790.74 6.5199L1835.04 83.2703ZM1792.66 3.99939C1792.51 4.78583 1792.05 5.47473 1791.44 5.96295L1836 83.1176H1836.14L1881.83 3.99939H1792.66ZM1788.01 6.3822L1774.27 30.1755L1743.86 82.8619H1743.82L1698.3 4.03229H1786.43C1786.58 5.03064 1787.17 5.90118 1788.01 6.3822ZM1696.43 3.25677H1605.89L1650.12 -73.3414C1650.39 -73.2712 1650.66 -73.2337 1650.95 -73.2337C1651.35 -73.2337 1651.76 -73.3451 1652.13 -73.4937L1696.43 3.25677ZM1654.06 -76.0142C1653.92 -75.21 1653.45 -74.5415 1652.84 -74.0505L1697.39 3.10406H1786.51C1786.64 2.1264 1787.19 1.29468 1787.98 0.810181L1743.64 -76.0142H1654.06ZM1649.36 -73.6558C1648.42 -74.1987 1647.79 -75.209 1647.79 -76.3526C1647.79 -77.5377 1648.44 -78.5687 1649.41 -79.1199L1605 -156.065H1513.03L1467.25 -76.8311H1559.22L1605.18 2.77411L1605.22 2.81128L1649.36 -73.6558ZM1650.11 -79.4198C1650.38 -79.496 1650.66 -79.5396 1650.95 -79.5457C1651.39 -79.5457 1651.8 -79.4714 1652.17 -79.2858L1696.69 -156.403L1652.17 -233.521C1651.8 -233.372 1651.39 -233.261 1650.95 -233.261C1650.64 -233.261 1650.35 -233.305 1650.08 -233.387L1621 -182.984L1605.66 -156.436L1650.11 -79.4198ZM1649.36 -233.71L1635.63 -209.939L1604.98 -156.882H1513.08L1558.75 -236.008H1647.86C1648.01 -235.045 1648.56 -234.2 1649.36 -233.71ZM1512.08 -155.995L1466.39 -76.8311H1374.42H1374.35L1328.38 -156.473L1343.72 -183.021L1372.82 -233.412C1373.12 -233.314 1373.44 -233.261 1373.78 -233.261C1374.18 -233.261 1374.59 -233.372 1374.96 -233.521L1419.71 -155.995H1512.08ZM1376.81 -236.115C1376.67 -235.311 1376.21 -234.643 1375.6 -234.152L1420.15 -156.997H1512.06L1481.69 -209.568L1466.36 -236.115H1376.81ZM1372.19 -233.706L1358.46 -209.939L1327.79 -156.845H1235.82L1189.85 -236.487L1235.34 -315.305L1281.14 -236.008H1370.69C1370.81 -235.042 1371.38 -234.195 1372.19 -233.706ZM1235.93 -316.092L1281.55 -237.048H1370.66C1370.78 -238.041 1371.33 -238.884 1372.13 -239.365L1327.83 -316.092H1235.93ZM1235.73 -316.946L1280.1 -393.808C1280.47 -393.622 1280.88 -393.548 1281.32 -393.548C1281.94 -393.548 1282.51 -393.73 1282.98 -394.041L1327.49 -316.946H1235.73ZM1283.54 -398.712L1328.23 -476.156H1420.2L1420.24 -476.193L1466.21 -396.551L1450.87 -370.004L1420.2 -316.909H1420.17L1373.96 -396.889H1284.41C1284.32 -397.6 1284.01 -398.233 1283.54 -398.712ZM1419.3 -316.909L1373.48 -396.295H1284.37C1284.28 -395.578 1283.96 -394.926 1283.47 -394.438L1328.23 -316.909H1419.3ZM1419.14 -316.129H1328.64L1372.79 -239.66C1373.08 -239.748 1373.38 -239.796 1373.7 -239.796C1374.15 -239.796 1374.56 -239.721 1374.93 -239.536L1404.11 -290.106L1419.14 -316.129ZM1420.08 -316.129L1389.48 -263.15L1375.6 -239.09C1376.27 -238.581 1376.77 -237.793 1376.85 -236.895H1465.87L1420.13 -316.129H1420.08ZM1420.99 -316.876L1436.13 -343.085L1466.54 -395.771L1510.76 -319.177C1509.97 -318.687 1509.42 -317.841 1509.3 -316.876H1420.99ZM1510.77 -313.92C1509.96 -314.4 1509.38 -315.246 1509.26 -316.245H1420.97L1466.54 -237.304L1510.77 -313.92ZM1511.48 -319.499L1467.21 -396.18H1557.91L1513.57 -319.364C1513.2 -319.549 1512.79 -319.623 1512.34 -319.623C1512.04 -319.623 1511.75 -319.58 1511.48 -319.499ZM1558.72 -396.136L1514.24 -319.104C1514.91 -318.602 1515.39 -317.828 1515.48 -316.946H1604.44L1574.03 -369.632L1558.72 -396.136ZM1557.83 -396.922H1467.28H1467.25L1512.55 -475.369L1557.83 -396.922ZM1513.15 -476.193L1558.79 -397.112H1558.92L1604.55 -476.193H1513.15ZM1512.95 -476.973L1557.34 -553.872C1557.71 -553.686 1558.12 -553.612 1558.57 -553.612C1559.18 -553.612 1559.74 -553.786 1560.21 -554.088L1604.74 -476.973H1512.95ZM1560.74 -558.776L1605.44 -636.22H1697.41L1743.38 -556.578L1697.41 -476.936H1697.38L1651.17 -556.954H1561.61C1561.53 -557.664 1561.21 -558.297 1560.74 -558.776ZM1696.56 -476.936L1650.72 -556.36H1561.61C1561.52 -555.615 1561.19 -554.956 1560.69 -554.469L1605.44 -476.936H1696.56ZM1697.41 -476.173V-476.156H1697.4L1652.84 -398.969C1653.58 -398.412 1654.1 -397.521 1654.1 -396.518C1654.1 -395.479 1653.58 -394.625 1652.84 -394.03L1697.37 -316.911L1728.04 -370.004L1743.38 -396.551L1697.42 -476.183L1697.41 -476.173ZM1696.45 -316.129H1605.89H1605.85L1650.03 -239.608C1650.33 -239.706 1650.65 -239.758 1650.98 -239.758C1651.43 -239.758 1651.84 -239.684 1652.21 -239.499L1681.39 -290.069L1696.45 -316.129ZM1697.35 -316.129L1666.73 -263.113L1652.84 -239.053C1653.54 -238.523 1653.99 -237.786 1654.09 -236.895H1743.12L1697.37 -316.129H1697.35ZM1698.26 -316.876L1713.38 -343.048L1744.04 -396.143H1836.01L1881.98 -316.5L1836.01 -236.858H1836L1791.48 -313.98C1792.22 -314.574 1792.74 -315.428 1792.74 -316.467C1792.74 -318.213 1791.33 -319.623 1789.59 -319.623C1787.99 -319.623 1786.73 -318.435 1786.51 -316.876H1698.26ZM1835.18 -236.858L1790.81 -313.72C1790.44 -313.571 1790.03 -313.46 1789.59 -313.46C1787.99 -313.46 1786.73 -314.685 1786.51 -316.208H1698.21L1744.01 -236.858H1835.18ZM1836.05 -236.055L1881.98 -156.473L1866.65 -129.926L1835.99 -76.8469L1791.48 -153.916C1792.22 -154.473 1792.74 -155.326 1792.74 -156.366C1792.74 -157.406 1792.22 -158.26 1791.48 -158.854L1836.05 -236.055ZM1835.03 -75.977H1744.53L1788.67 0.492432C1788.96 0.403931 1789.27 0.356445 1789.59 0.356445C1790.03 0.356445 1790.44 0.430725 1790.81 0.616394L1820 -49.9537L1835.03 -75.977ZM1835.89 -75.977L1805.33 -23.0721L1791.44 1.02478C1792.13 1.54089 1792.63 2.34399 1792.7 3.25677H1881.76L1836.01 -75.977H1835.89ZM1836.82 -76.761L1851.98 -103.007L1882.39 -155.694L1927.96 -76.761H1836.82ZM1927.96 -76.1669H1836.81L1882.39 2.77411L1927.96 -76.1669ZM1928.45 -77.5355L1883.09 -156.102H1971.31C1971.39 -155.208 1971.88 -154.423 1972.56 -153.916L1928.45 -77.5355ZM1975.9 -153.813C1975.46 -153.57 1974.96 -153.433 1974.42 -153.433C1973.97 -153.433 1973.56 -153.544 1973.19 -153.693L1928.84 -76.8682H2020.32L1989.91 -129.555L1975.9 -153.813ZM1971.34 -156.845H1883.09H1883.06L1928.4 -235.356L1972.56 -158.854C1971.94 -158.356 1971.47 -157.65 1971.34 -156.845ZM1928.95 -236.115L1973.19 -159.485C1973.56 -159.634 1973.97 -159.745 1974.42 -159.745C1975.01 -159.745 1975.56 -159.575 1976.02 -159.283L2020.36 -236.115H1928.95ZM1928.82 -236.858L1973.19 -313.72C1973.56 -313.534 1973.97 -313.46 1974.42 -313.46C1974.96 -313.46 1975.47 -313.599 1975.91 -313.845L2020.36 -236.858H1928.82ZM1976.57 -318.763L2021.25 -396.18H2113.22L2159.19 -316.537L2114.57 -239.227C2114.12 -239.471 2113.6 -239.61 2113.06 -239.61C2112.61 -239.61 2112.2 -239.499 2111.83 -239.35L2067.09 -316.876H1977.54C1977.43 -317.608 1977.08 -318.272 1976.57 -318.763ZM2109.91 -236.895H2021.25L1976.56 -314.331C1977.05 -314.816 1977.39 -315.47 1977.5 -316.208H2066.61L2111.15 -239.079C2110.48 -238.568 2109.99 -237.812 2109.91 -236.895ZM2114.63 -233.715L2159.19 -156.51L2143.85 -129.963L2113.21 -76.9161L2067.47 -156.173L2067.66 -156.51L2067.55 -156.696L2067.51 -156.775L2111.83 -233.558C2112.2 -233.372 2112.61 -233.298 2113.06 -233.298C2113.63 -233.298 2114.17 -233.45 2114.63 -233.715ZM2066.99 -157.664L2111.16 -234.152C2110.55 -234.643 2110.09 -235.311 2109.95 -236.115H2021.7L2066.99 -157.664ZM2066.47 -156.997L2021.03 -235.67L1976.64 -158.779C1977.09 -158.3 1977.4 -157.678 1977.5 -156.997H2066.47ZM2066.6 -156.18H1977.5C1977.39 -155.437 1977.05 -154.777 1976.55 -154.291L2005.95 -103.378L2021.03 -77.2394L2066.6 -156.18ZM2067.06 -155.464L2112.42 -76.8682H2021.66L2067.06 -155.464ZM2114.05 -76.7982L2129.19 -103.007L2159.86 -156.102H2248.56C2248.65 -155.223 2249.14 -154.453 2249.8 -153.953L2205.25 -76.7982H2114.05ZM2253.81 -158.699L2298.5 -236.115H2390.47L2436.43 -156.473L2390.49 -76.8826L2344.34 -156.812H2254.78C2254.67 -157.544 2254.32 -158.208 2253.81 -158.699ZM2389.65 -76.8311L2343.85 -156.18H2254.74C2254.65 -155.428 2254.31 -154.762 2253.8 -154.274L2283.2 -103.378L2298.53 -76.8311H2389.65ZM2389.53 -75.977L2345.34 0.579224C2344.97 0.393555 2344.56 0.319336 2344.11 0.319336C2343.79 0.319336 2343.48 0.368103 2343.18 0.458923L2299.05 -75.977H2389.53ZM2342.46 6.28925L2298.05 83.2332H2208.6C2208.47 82.3922 2208 81.6946 2207.37 81.1868L2251.92 4.03229H2341.03C2341.17 4.9693 2341.7 5.79382 2342.46 6.28925ZM2203.78 86.3116L2159.6 162.838L2114.12 84.0829H2202.39C2202.52 85.0024 2203.04 85.8134 2203.78 86.3116ZM2113.28 84.0829H2112.83L2112.82 84.05H2021.73L2067.48 163.284H2158.96H2159L2113.28 84.0829ZM2112.34 83.2332L2068.09 6.55701C2067.72 6.70557 2067.31 6.81696 2066.87 6.81696C2066.52 6.81696 2066.19 6.75958 2065.89 6.65424L2036.77 57.057L2021.66 83.2332H2112.34ZM2069.91 3.96228C2069.79 4.7796 2069.32 5.49658 2068.69 6.00012L2113.24 83.1547L2113.28 83.1176H2202.39C2202.5 82.1535 2203.05 81.3312 2203.82 80.844L2174.74 30.5096L2159.41 3.96228H2069.91ZM2069.93 3.14539H2158.93L2113.2 -76.0583L2082.57 -23.035L2068.69 1.06189C2069.34 1.5498 2069.82 2.29425 2069.93 3.14539ZM2065.9 0.472717C2066.2 0.373108 2066.53 0.319336 2066.87 0.319336C2067.31 0.319336 2067.72 0.393555 2068.09 0.579224L2097.28 -49.9908L2112.35 -76.0884H2021.7L2065.9 0.472717ZM2065.16 6.28723L2051.4 30.1012L2020.99 82.7877L1975.55 4.0694H2063.79C2063.92 4.98212 2064.43 5.78815 2065.16 6.28723ZM1975.53 3.06689H2063.79C2063.9 2.12518 2064.42 1.31891 2065.16 0.827881L2020.99 -75.6801L1975.53 3.06689ZM1974.66 3.04175L2020.32 -76.0884H1928.95L1959.34 -23.4805L1974.66 3.04175ZM1973.8 3.1825L1943.3 -49.6195L1928.41 -75.407L1883.02 3.1825H1883.06H1973.8ZM1974.67 4.07159L2020.4 83.2703H1931.36C1931.24 82.4347 1930.76 81.7048 1930.12 81.2239L1974.67 4.07159ZM1927.31 80.4958C1927.59 80.4139 1927.88 80.37 1928.19 80.37C1928.64 80.37 1929.04 80.4442 1929.42 80.6299L1973.63 4.0365H1883.17L1913.58 56.7229L1927.31 80.4958ZM1926.58 80.8199L1897.54 30.5468L1882.46 4.40778L1837.02 83.1176H1925.11C1925.23 82.1374 1925.78 81.3038 1926.58 80.8199ZM1926.69 86.2643C1925.87 85.7794 1925.29 84.919 1925.15 83.9344H1836.89L1867.39 136.736L1882.46 162.875L1926.69 86.2643ZM1931.37 83.9387H2020.32L2005.21 110.115L1975.91 160.905C1975.48 160.668 1974.98 160.532 1974.45 160.532C1974.01 160.532 1973.6 160.643 1973.23 160.792L1930.12 86.1251C1930.8 85.6176 1931.29 84.8326 1931.37 83.9387ZM1971.36 163.21C1971.47 162.358 1971.95 161.609 1972.6 161.089L1929.49 86.4221H1929.45C1929.08 86.5706 1928.67 86.6819 1928.23 86.6819C1927.91 86.6819 1927.6 86.6332 1927.32 86.5432L1883.06 163.21H1971.36ZM1971.37 164.026H1883.06L1928.4 242.565L1958.71 190.087L1972.6 166.027C1971.97 165.524 1971.5 164.835 1971.37 164.026ZM1975.87 166.32C1975.44 166.537 1974.96 166.658 1974.45 166.658C1974.01 166.658 1973.6 166.584 1973.23 166.398L1944.04 216.969L1928.86 243.26H2020.29L1975.87 166.32ZM1976.61 161.43L1990.66 137.108L2021.07 84.4213L2066.6 163.28H1977.54C1977.43 162.566 1977.1 161.917 1976.61 161.43ZM2067.52 164.026H2159L2114.61 240.953C2114.15 240.694 2113.62 240.546 2113.06 240.546C2112.61 240.546 2112.2 240.657 2111.83 240.805L2067.52 164.026ZM2109.91 243.297C2109.99 242.4 2110.49 241.608 2111.2 241.065L2066.65 163.911H1977.54C1977.45 164.666 1977.09 165.335 1976.57 165.823L2021.29 243.297H2109.91ZM2114.67 246.417L2159.26 323.682L2143.93 350.23L2113.26 403.322L2067.52 324.066L2067.74 323.682L2067.63 323.497L2067.53 323.335L2111.83 246.598C2112.2 246.783 2112.61 246.858 2113.06 246.858C2113.65 246.858 2114.2 246.697 2114.67 246.417ZM2067.05 322.496L2111.2 246.004C2110.59 245.546 2110.11 244.862 2109.95 244.077H2021.77L2067.05 322.496ZM2067.09 324.812L2112.4 403.324H2021.73L2067.09 324.812ZM2112.37 404.104H2021.66L2065.88 480.707C2066.19 480.604 2066.52 480.549 2066.87 480.549C2067.31 480.549 2067.72 480.623 2068.09 480.809L2097.28 430.239L2112.37 404.104ZM2113.2 404.134L2082.57 457.158L2068.69 481.255C2069.33 481.77 2069.81 482.48 2069.92 483.338H2158.89H2158.93L2113.2 404.134ZM2114.05 403.357L2129.19 377.148L2159.86 324.053H2248.52C2248.63 324.947 2249.14 325.707 2249.8 326.203L2205.25 403.357H2114.05ZM2253.85 321.493L2298.53 244.077H2390.5H2390.58L2436.54 323.719L2421.21 350.267L2390.56 403.32H2390.49L2344.3 323.307H2254.74C2254.64 322.611 2254.32 321.977 2253.85 321.493ZM2389.69 403.362L2343.89 324.012H2343.85H2254.74C2254.64 324.744 2254.3 325.394 2253.81 325.878L2283.24 376.814L2298.57 403.362H2389.69ZM2391.39 403.32L2406.47 377.223L2437.14 324.128H2529.11L2575.07 403.77L2530.47 481.019C2530 480.744 2529.45 480.586 2528.87 480.586C2528.42 480.586 2528.01 480.698 2527.64 480.846L2482.9 403.32H2391.39ZM2525.8 483.412C2525.89 482.53 2526.38 481.753 2527.05 481.217L2482.49 404.063H2391.3L2437.1 483.412H2525.8ZM2525.83 484.192C2525.96 484.993 2526.43 485.691 2527.05 486.156L2482.9 562.611L2437.62 484.192H2525.83ZM2482.47 564.127L2436.69 643.439H2344.72L2344.68 643.402L2298.72 563.797L2314.05 537.25L2343.23 486.741C2343.5 486.819 2343.78 486.861 2344.08 486.861C2344.52 486.861 2344.93 486.75 2345.3 486.601L2390.04 564.127H2482.47ZM2347.2 484.155C2347.07 484.991 2346.6 485.681 2345.97 486.156L2390.52 563.31H2482.38L2436.69 484.155H2347.2ZM2347.21 483.338H2436.17L2390.46 404.167L2359.86 457.158L2345.97 481.217C2346.62 481.74 2347.1 482.464 2347.21 483.338ZM2343.14 480.666C2343.45 480.566 2343.77 480.512 2344.11 480.512C2344.56 480.512 2344.97 480.586 2345.34 480.772L2374.52 430.202L2389.6 404.104H2298.94L2343.14 480.666ZM2342.46 486.397L2328.68 510.257L2298.27 562.943L2252.74 484.114H2340.99C2341.13 485.068 2341.68 485.905 2342.46 486.397ZM2252.81 483.26H2341.03C2341.17 482.303 2341.69 481.486 2342.45 480.998L2298.27 404.475V404.513L2252.81 483.26ZM2251.86 484.155H2251.86L2297.6 563.389H2208.57C2208.47 562.529 2207.99 561.796 2207.33 561.268L2251.86 484.155ZM2204.57 560.699C2204.85 560.611 2205.16 560.563 2205.47 560.563C2205.92 560.563 2206.33 560.674 2206.7 560.823L2250.96 484.155H2160.38L2190.78 536.841L2204.57 560.699ZM2208.56 564.168H2297.64H2297.68L2251.92 643.41L2207.33 566.169C2207.96 565.697 2208.43 564.985 2208.56 564.168ZM2251.07 643.439L2206.7 566.578C2206.33 566.726 2205.92 566.838 2205.47 566.838C2205.18 566.838 2204.91 566.799 2204.64 566.726L2160.38 643.439H2251.07ZM2250.91 644.219L2205.67 722.606L2160.41 644.219H2250.91ZM2205.13 723.337L2159.45 644.182H2067.57L2111.83 720.85C2112.2 720.701 2112.61 720.59 2113.06 720.59C2114.65 720.59 2115.92 721.778 2116.14 723.337H2205.13ZM2203.89 566.401C2203.09 565.919 2202.53 565.079 2202.39 564.09H2114.12L2159.67 642.994L2203.89 566.401ZM2114.19 563.31H2202.39C2202.51 562.361 2203.05 561.527 2203.84 561.034L2174.74 510.665L2159.67 484.526L2114.19 563.31ZM2113.28 563.31L2113.24 563.347L2068.69 486.193C2069.33 485.711 2069.8 485.008 2069.92 484.155H2159L2113.28 563.31ZM2113.23 564.184L2067.5 643.402H2158.96L2113.23 564.184ZM2251 483.338L2220.55 430.61L2205.63 404.786L2160.3 483.338H2251ZM2206.18 404.067L2236.59 456.712L2251.89 483.216L2297.57 404.067H2206.18ZM2206.11 403.287H2297.57L2267.16 350.601L2253.16 326.37C2252.72 326.619 2252.21 326.76 2251.66 326.76C2251.21 326.76 2250.81 326.685 2250.44 326.5L2206.11 403.287ZM2205.15 404.063H2114.1L2159.63 482.93L2205.15 404.063ZM2066.6 324.049H1977.54C1977.43 324.78 1977.1 325.429 1976.61 325.912L2021.07 402.916L2066.6 324.049ZM1976.65 321.386C1977.12 321.869 1977.43 322.501 1977.54 323.195H2066.53L2021.07 244.448L1976.65 321.386ZM1976.03 320.89L2020.4 244.077H1929.03L1973.23 320.633V320.708C1973.6 320.559 1974.01 320.448 1974.45 320.448C1975.03 320.448 1975.57 320.61 1976.03 320.89ZM1975.95 326.409C1975.51 326.657 1975 326.797 1974.45 326.797C1974.01 326.797 1973.6 326.723 1973.23 326.537L1928.9 403.324H2020.36L1975.95 326.409ZM2204.51 80.5193C2204.81 80.4223 2205.14 80.37 2205.47 80.37C2205.92 80.37 2206.33 80.4442 2206.7 80.6299L2250.93 3.99939H2160.34L2190.75 56.6858L2204.51 80.5193ZM2252.85 3.06689H2341.03C2341.14 2.12036 2341.67 1.31067 2342.42 0.820374L2298.27 -75.6429L2252.85 3.06689ZM2251.02 3.1825H2160.3L2205.64 -75.3882L2220.55 -49.5824L2251.02 3.1825ZM2206.2 -76.0884L2236.59 -23.4805L2251.91 3.04169L2297.57 -76.0884H2206.2ZM2206.09 -76.8682H2297.57L2267.16 -129.555L2253.15 -153.803C2252.71 -153.567 2252.21 -153.433 2251.66 -153.433C2251.21 -153.433 2250.81 -153.544 2250.44 -153.693L2206.09 -76.8682ZM2205.17 -76.1298H2114.08L2159.63 2.77411L2205.17 -76.1298ZM1835.14 -76.8311L1790.81 -153.619V-153.656C1790.44 -153.507 1790.03 -153.396 1789.59 -153.396C1789.29 -153.396 1789.01 -153.437 1788.75 -153.514L1744.45 -76.8311H1835.14ZM1788.66 -159.569C1788.95 -159.659 1789.26 -159.708 1789.59 -159.708C1790.03 -159.708 1790.44 -159.633 1790.81 -159.448L1835.05 -236.078H1744.49L1788.66 -159.569ZM1788.01 -153.84L1743.78 -77.2394L1698.23 -156.143H1786.51C1786.65 -155.176 1787.21 -154.329 1788.01 -153.84ZM1698.32 -156.96H1786.51C1786.64 -157.921 1787.17 -158.742 1787.94 -159.229L1743.78 -235.707L1698.32 -156.96ZM1697.45 -156.96L1743.15 -236.078H1654.06C1653.93 -235.259 1653.46 -234.582 1652.84 -234.115L1697.39 -156.96H1697.45ZM1697.36 -156.082L1652.84 -78.9888C1653.51 -78.4867 1654 -77.7131 1654.09 -76.8311H1743.12L1697.36 -156.082ZM1696.56 -316.909L1652.21 -393.733L1652.17 -393.771C1651.8 -393.622 1651.39 -393.511 1650.98 -393.511C1650.7 -393.511 1650.42 -393.549 1650.16 -393.62L1605.85 -316.909H1696.56ZM1650.02 -399.715C1650.31 -399.809 1650.62 -399.86 1650.95 -399.86C1651.39 -399.86 1651.8 -399.785 1652.17 -399.6L1696.37 -476.156H1605.89L1650.02 -399.715ZM1649.27 -399.348L1605.14 -475.785L1559.73 -397.112H1647.9C1648.04 -398.036 1648.54 -398.85 1649.27 -399.348ZM1649.39 -393.95C1648.58 -394.433 1648.02 -395.271 1647.9 -396.258H1559.57L1590.07 -343.456L1605.14 -317.317L1649.39 -393.95ZM1515.45 -316.129C1515.31 -315.325 1514.85 -314.656 1514.24 -314.165L1543.46 -263.558L1558.79 -237.011H1558.86L1604.55 -316.129H1604.51H1515.45ZM1557.96 -236.858L1527.42 -289.734L1513.53 -313.757C1513.16 -313.608 1512.75 -313.497 1512.34 -313.497C1512.06 -313.497 1511.79 -313.534 1511.53 -313.603L1467.25 -236.858H1557.96ZM1557.78 -236.115H1467.28L1497.69 -183.429L1512.54 -157.725L1557.78 -236.115ZM1559.77 -237.011H1647.9C1648.04 -237.977 1648.58 -238.801 1649.34 -239.287L1605.22 -315.721L1559.77 -237.011ZM1421.45 6.19739C1421 6.45044 1420.48 6.59418 1419.93 6.59418C1419.48 6.59418 1419.07 6.5199 1418.7 6.33429L1374.29 83.2703H1465.95L1435.54 30.5839L1421.45 6.19739ZM1373.55 83.9981L1373.52 83.9344H1282.44L1328.01 162.875L1373.55 83.9981ZM1373.98 84.7451L1328.64 163.284H1419.35L1388.85 110.482L1373.98 84.7451ZM1374.53 84.05L1404.85 136.547L1420.19 163.094H1420.28L1465.91 84.05H1374.53ZM1654.1 244.077C1653.98 244.894 1653.51 245.606 1652.88 246.078L1697.43 323.27V323.232H1697.51L1743.23 244.077H1654.1ZM1697.43 324.06L1651.68 403.32L1651.68 403.324H1743.19L1697.43 324.06ZM1698.27 324.049L1743.82 402.953L1789.37 324.049H1698.27ZM1698.36 323.232H1789.28L1758.9 270.625L1743.82 244.486L1698.36 323.232Z" fill="#0097CD"/>
</g>
<defs>
<clipPath id="clip0_1622_15848">
<rect width="1920" height="1080" fill="white"/>
</clipPath>
</defs>
</svg>
