<svg width="192" height="67" viewBox="0 0 192 67" fill="none" xmlns="http://www.w3.org/2000/svg">
<path fill-rule="evenodd" clip-rule="evenodd" d="M188.823 53.1265L173.753 0.122568L168.471 0.122568L153.374 53.1402L138.725 0.10895L136.336 0.10895L126.751 34.0876L117.682 0.0953309L115.347 0.0953309L102.884 43.0351C102.884 43.0351 102.626 33.8288 99.9647 30.8464C97.3308 27.8911 94.2761 26.7063 87.4064 25.6304C87.4064 25.6304 86.076 25.6985 86.4425 24.9222C86.4425 24.9222 92.3347 24.7588 96.5434 21.6401C96.5434 21.6401 102.816 17.0506 100.114 8.30741C98.4577 2.95526 90.2711 0.871597 90.2711 0.871597C86.5104 -0.217899 78.3645 0.122568 78.3645 0.122568L61.231 0.122568V1.75681L66.553 1.75681L66.6209 43.3756C63.5255 47.3522 61.2446 49.4767 60.2943 50.3075C59.4254 51.0701 58.828 50.8386 58.828 50.8386C57.9727 50.539 58.5158 48.9592 58.5158 48.9592C58.788 48.0621 59.4964 45.8026 60.3323 43.1362L60.3332 43.1335C61.2483 40.2148 62.316 36.8091 63.1317 34.1693C63.1317 34.1693 63.8513 31.9495 64.7202 28.9806C65.6434 25.8755 65.0596 23.6829 65.0596 23.6829C64.2993 21.2452 62.2086 19.9242 59.9956 19.4884C58.5022 19.1887 56.873 19.1615 55.719 19.2432C51.9719 19.502 48.9715 21.7627 48.9715 21.7627C47.0708 23.1518 46.6771 23.6012 46.6771 23.6012L54.7143 0L38.6398 0V1.6751L40.8935 1.6751L39.8346 5.01168C35.205 -0.0544747 23.6378 0.10895 23.6378 0.10895L0.435687 0.10895L0.435687 1.72957L7.16961 1.72957L7.16961 53.1402H0.177734L0.177734 54.7744L24.3981 54.7744H41.07V53.1402H36.5898L45.4009 27.2646C45.4009 27.2646 49.9762 22.0895 53.5468 21.4222C53.5468 21.4222 55.013 20.9047 54.1577 23.5876C53.1857 26.6049 49.4561 38.6346 47.6163 44.5689L47.4374 45.146C47.4374 45.146 46.5413 48.0604 46.6499 50.0623C46.6499 50.0623 46.6364 54.3522 51.6732 55.1013C57.3075 55.9456 60.1585 53.4125 66.553 46.181V53.1674L61.1089 53.1674V54.788L83.5779 54.788V53.181H77.0612L77.0612 26.0798L82.003 26.0798C82.003 26.0798 89.7552 25.358 90.7327 34.2238C90.9106 35.8373 91.008 37.5131 91.1051 39.1839C91.5416 46.6935 91.9723 54.1024 99.6796 55.3055C109.088 56.7764 111.532 52.146 111.532 52.146L111.002 51.3289C111.002 51.3289 108.111 54.3659 105.898 53.7122C104.119 53.181 103.277 51.3425 103.101 47.788L112.061 18.1265L122.447 55.3464L132.955 18.2354L142.31 53.181H137.694V54.788L158.289 54.788V53.181H155.085L157.814 43.6752H175.355L177.771 53.1674H173.359V54.8017H191.999V53.1674H188.836L188.823 53.1265ZM17.5284 1.71596C23.5292 0.599223 26.9233 2.90078 26.9233 2.90078C26.9233 2.90078 32.3947 5.65176 31.485 15.3755C31.485 15.3755 31.4579 20.6051 29.2042 23.7238C29.2042 23.7238 27.1541 26.4203 22.8233 26.9923C21.4249 27.1829 17.5149 27.0467 17.5149 27.0467L17.5149 1.71596H17.5284ZM17.447 53.1265L17.447 28.9125C26.6382 28.9125 31.295 27.6732 32.7205 27.1965L24.466 53.1265L17.447 53.1265ZM34.7841 53.1538H26.2717L34.7705 26.3794C39.9839 24.2685 41.8574 20.4961 41.8574 20.4961C45.5231 14.2724 42.4141 8.48445 41.1379 6.55059L42.7535 1.52529L52.3792 1.52529L34.7841 53.1402V53.1538ZM55.0402 53.4534C54.5107 53.576 51.0759 53.8347 49.4467 52.323C47.7904 50.7841 48.4149 48.0468 48.8901 46.3172C49.4195 44.3833 50.6686 40.5701 50.6686 40.5701C51.6491 37.311 52.8663 33.4544 53.8716 30.2693L53.8717 30.269C54.7315 27.5448 55.4363 25.3118 55.7054 24.3639C56.4929 21.6129 56.1535 20.9047 56.1535 20.9047C56.1535 20.9047 57.7147 20.5234 60.2671 21.2316C62.7652 21.9261 64.2179 23.7919 63.0096 28.4903L57.6876 45.7452L57.0631 47.6791C56.7508 48.6732 56.4793 50.076 56.7372 50.8658C57.1038 51.969 57.7962 52.2277 57.7962 52.2277C56.968 52.8542 55.4746 53.3308 55.013 53.4398L55.0402 53.4534ZM77.0883 24.9222V1.55253C77.0883 1.55253 80.1295 1.25292 82.7769 1.6751C82.7769 1.6751 88.3432 1.71596 89.3886 11.6576C89.4701 12.4611 89.5244 13.3191 89.5244 14.2452C89.5651 19.1615 88.0853 23.8055 83.6729 24.7043C83.6729 24.7043 80.0752 25.4806 77.0883 24.9495V24.9222ZM159.185 38.8814L166.625 12.8152L174.187 38.8814H159.185ZM4.98423 61.6519C4.98423 60.3445 4.03388 59.5273 2.47259 59.5273H0.517578L0.517578 66.4048H1.07421L1.07421 63.7491H2.45901C2.62193 63.7491 2.77127 63.7491 2.92061 63.7219L4.54978 66.4048H5.18788L3.47724 63.613C4.41402 63.3406 4.97065 62.646 4.97065 61.6519H4.98423ZM2.49974 63.2452H1.07421L1.07421 60.0585H2.49974C3.66732 60.0585 4.41402 60.6305 4.41402 61.6382C4.41402 62.5779 3.74877 63.2316 2.49974 63.2316V63.2452ZM11.8255 62.9865H8.67578V65.86H12.6401V66.4048H8.11914V59.5273H12.5722V60.0721H8.67578L8.67578 62.469H11.8255V62.9865ZM17.5281 62.5502L17.4446 62.5269C16.5446 62.2754 15.5866 62.0077 15.5866 61.202C15.5866 60.3712 16.3198 59.9218 17.3244 59.9218C18.3291 59.9218 19.0351 60.4666 19.1844 61.379L19.7275 61.2292C19.5238 60.1125 18.5599 59.4043 17.338 59.4043C15.9939 59.4043 15.0029 60.1533 15.0029 61.2156C15.0029 62.3736 16.1571 62.712 16.9445 62.9429L16.9986 62.9588C17.1053 62.9904 17.216 63.0213 17.3285 63.0526L17.329 63.0527L17.3294 63.0528L17.3295 63.0529C18.233 63.3044 19.2523 63.5882 19.2523 64.593C19.2523 65.4238 18.5327 66.023 17.4059 66.023C16.184 66.023 15.478 65.274 15.3966 64.3887L14.8535 64.5385C15.0029 65.6689 15.8989 66.5541 17.3787 66.5541C18.8586 66.5541 19.8361 65.7234 19.8361 64.593C19.8361 63.2039 18.4784 62.8226 17.5281 62.5638V62.5502ZM26.4074 62.9865H23.2577V65.86H27.222V66.4048H22.7011V59.5273H27.1541V60.0721H23.2577V62.469H26.4074V62.9865ZM32.5704 59.5273L29.5293 66.4048H30.1402L31.0091 64.4028H34.6205L35.4894 66.4048H36.1003L33.0592 59.5273H32.5704ZM34.3897 63.8989H31.2399L32.5025 60.9982C32.5803 60.8139 32.658 60.6075 32.7166 60.4519L32.7166 60.4517L32.7167 60.4515C32.7706 60.3083 32.8083 60.2083 32.8148 60.2083C32.8148 60.2083 32.9777 60.6441 33.1271 60.9982L34.3897 63.8989ZM40.6758 59.5273C42.2371 59.5273 43.1875 60.3445 43.1875 61.6519C43.1875 62.646 42.6308 63.3406 41.694 63.613L43.4047 66.4048H42.7666L41.1374 63.7219C40.9881 63.7491 40.8251 63.7491 40.6758 63.7491H39.291L39.291 66.4048H38.7344L38.7344 59.5273H40.6758ZM39.2774 63.2452H40.703V63.2316C41.952 63.2316 42.6172 62.5779 42.6172 61.6382C42.6172 60.6305 41.8705 60.0585 40.703 60.0585H39.2774V63.2452ZM49.1489 65.9821C47.479 65.9821 46.1757 64.7564 46.1757 62.9723C46.1757 61.1883 47.4654 59.949 49.1489 59.949C50.2215 59.949 51.1854 60.4801 51.7013 61.3381L52.2715 61.1883C51.6606 60.0988 50.5066 59.3906 49.1625 59.3906C47.1939 59.3906 45.6055 60.8887 45.6055 62.9587C45.6055 65.0288 47.1939 66.5268 49.1625 66.5268C50.588 66.5268 51.8099 65.7506 52.3665 64.5385L51.8099 64.3887C51.3212 65.3556 50.3165 65.9821 49.1625 65.9821H49.1489ZM55.543 62.5507H59.6159V59.5273H60.1725L60.1725 66.4048H59.6159L59.6159 63.0818H55.543L55.543 66.4048H54.9863L54.9863 59.5273H55.543V62.5507ZM85.2754 59.5273H83.334V66.4048H83.8906V63.8309H85.2754C86.8503 63.8309 87.7871 63.0137 87.7871 61.6791C87.7871 60.3445 86.8503 59.5273 85.2754 59.5273ZM85.2754 63.2861H83.8906V60.0721H85.2754C86.4566 60.0721 87.2169 60.6305 87.2169 61.6791C87.2169 62.6733 86.5245 63.2861 85.2754 63.2861ZM92.4981 59.5273C94.0594 59.5273 95.0097 60.3445 95.0097 61.6519H95.0369C95.0369 62.646 94.4802 63.3406 93.5435 63.613L95.2405 66.4048H94.6024L92.9597 63.7219C92.8103 63.7491 92.6474 63.7491 92.4981 63.7491H91.1133V66.4048H90.5566V59.5273H92.4981ZM91.0997 63.2452H92.5252V63.2316C93.7743 63.2316 94.4395 62.5779 94.4395 61.6382C94.4395 60.6305 93.7064 60.0585 92.5252 60.0585H91.0997V63.2452ZM100.969 59.3916C99.0005 59.3916 97.4121 60.8897 97.4121 62.9597C97.4121 65.0297 99.0005 66.5278 100.969 66.5278C102.938 66.5278 104.526 65.0297 104.526 62.9597C104.526 60.8897 102.938 59.3916 100.969 59.3916ZM100.969 65.9831C99.2992 65.9831 97.9959 64.7438 97.9959 62.9597C97.9959 61.1757 99.2992 59.9363 100.969 59.9363C102.639 59.9363 103.956 61.1484 103.956 62.9597C103.956 64.771 102.639 65.9831 100.969 65.9831ZM113.323 63.4217H111.165L111.151 63.4081V62.9178H113.826V66.4042H113.323V65.233C113.025 65.6143 112.142 66.5132 110.635 66.5132C108.667 66.5132 107.078 65.0151 107.078 62.9451C107.078 60.875 108.667 59.377 110.635 59.377C112.074 59.4178 113.147 60.1124 113.744 61.1746L113.174 61.3244C112.658 60.4664 111.694 59.9353 110.622 59.9353C108.938 59.9353 107.648 61.1746 107.648 62.9587C107.648 64.7427 108.965 65.982 110.635 65.982C112.047 65.982 113.052 65.124 113.323 64.5112V63.4217ZM121.348 61.6519C121.348 60.3445 120.397 59.5273 118.836 59.5273H116.895V66.4048H117.451V63.7491H118.836C118.985 63.7491 119.148 63.7491 119.298 63.7219L120.927 66.4048H121.565L119.854 63.6129C120.791 63.3406 121.348 62.646 121.348 61.6519ZM118.863 63.2452H117.438V60.0585H118.863C120.031 60.0585 120.777 60.6304 120.777 61.6382C120.777 62.5779 120.112 63.2316 118.863 63.2316V63.2452ZM128.191 62.9865H125.055V65.86H129.005V66.4048H124.498V59.5273H128.951V60.0721H125.055V62.469H128.191V62.9865ZM133.891 62.5502L133.808 62.5269C132.908 62.2754 131.95 62.0077 131.95 61.202C131.95 60.3712 132.683 59.9218 133.688 59.9218C134.692 59.9218 135.398 60.4666 135.548 61.379L136.091 61.2292C135.887 60.1125 134.923 59.4043 133.701 59.4043C132.357 59.4043 131.366 60.1533 131.366 61.2156C131.366 62.3646 132.515 62.7067 133.291 62.9375L133.362 62.9588C133.469 62.9905 133.58 63.0214 133.692 63.0528L133.693 63.0529C134.596 63.3044 135.616 63.5882 135.616 64.593C135.616 65.4238 134.896 66.023 133.769 66.023C132.547 66.023 131.841 65.274 131.76 64.3887L131.217 64.5385C131.366 65.6689 132.262 66.5541 133.742 66.5541C135.222 66.5541 136.199 65.7234 136.199 64.593C136.199 63.2039 134.842 62.8226 133.891 62.5638V62.5502ZM141.099 62.5269L141.182 62.5502V62.5638C142.133 62.8226 143.49 63.2039 143.49 64.593C143.49 65.7234 142.513 66.5541 141.033 66.5541C139.553 66.5541 138.657 65.6689 138.508 64.5385L139.051 64.3887C139.132 65.274 139.838 66.023 141.06 66.023C142.187 66.023 142.907 65.4238 142.907 64.593C142.907 63.5882 141.887 63.3044 140.984 63.0529C140.871 63.0214 140.76 62.9905 140.653 62.9588L140.599 62.9429C139.811 62.712 138.657 62.3736 138.657 61.2156C138.657 60.1533 139.648 59.4043 140.992 59.4043C142.214 59.4043 143.178 60.1125 143.382 61.2292L142.839 61.379C142.689 60.4666 141.983 59.9218 140.979 59.9218C139.974 59.9218 139.241 60.3712 139.241 61.202C139.241 62.0077 140.199 62.2754 141.099 62.5269ZM166.774 62.5507H162.701V59.5273H162.145V66.4048H162.701V63.0818H166.774V66.4048H167.344V59.5273H166.774V62.5507ZM170.195 62.9587C170.195 60.8887 171.784 59.3906 173.752 59.3906C175.721 59.3906 177.309 60.8887 177.309 62.9587C177.309 65.0288 175.721 66.5268 173.752 66.5268C171.784 66.5268 170.195 65.0288 170.195 62.9587ZM170.779 62.9587C170.779 64.7428 172.082 65.9821 173.752 65.9821C175.422 65.9821 176.739 64.77 176.739 62.9587C176.739 61.1474 175.422 59.9354 173.752 59.9354C172.082 59.9354 170.779 61.1747 170.779 62.9587ZM182.074 59.5273H180.133V66.4048H180.689V63.8309H182.074C183.649 63.8309 184.586 63.0137 184.586 61.6791C184.586 60.3445 183.649 59.5273 182.074 59.5273ZM182.074 63.2861H180.689V60.0721H182.074C183.255 60.0721 184.016 60.6305 184.016 61.6791C184.016 62.6733 183.323 63.2861 182.074 63.2861ZM191.035 62.9865H187.898V65.86H191.849V66.4048H187.342V59.5273H191.795V60.0721H187.898V62.469H191.035V62.9865ZM71.8623 61.1758C70.7083 61.1758 69.7715 62.1155 69.7715 63.2731C69.7715 64.4306 70.7083 65.3703 71.8623 65.3703C73.0163 65.3703 73.953 64.4306 73.953 63.2731C73.953 62.1155 73.0163 61.1758 71.8623 61.1758ZM154.935 63.2867C154.935 64.445 153.999 65.384 152.845 65.384C151.69 65.384 150.754 64.445 150.754 63.2867C150.754 62.1284 151.69 61.1895 152.845 61.1895C153.999 61.1895 154.935 62.1284 154.935 63.2867Z" fill="white"/>
</svg>
